<?xml version="1.0" standalone="no"?>
<!DOCTYPE svg PUBLIC "-//W3C//DTD SVG 20010904//EN"
 "http://www.w3.org/TR/2001/REC-SVG-20010904/DTD/svg10.dtd">
<svg version="1.0" xmlns="http://www.w3.org/2000/svg"
 width="1000.000000pt" height="1321.000000pt" viewBox="0 0 1000.000000 1321.000000"
 preserveAspectRatio="xMidYMid meet">

<g transform="translate(0.000000,1321.000000) scale(0.100000,-0.100000)"
fill="#000000" stroke="none">
<path d="M4423 12986 c-6 -8 -9 -17 -6 -20 4 -3 -3 -6 -14 -6 -21 0 -135 -93
-161 -132 -8 -13 -34 -44 -56 -70 -81 -92 -186 -245 -186 -270 0 -10 -4 -18
-10 -18 -5 0 -25 -35 -45 -77 -20 -43 -55 -114 -77 -159 -39 -81 -55 -128 -65
-194 -3 -19 -11 -42 -18 -50 -14 -17 -37 -90 -55 -175 -7 -33 -16 -76 -21 -95
-5 -21 -5 -38 1 -44 6 -6 4 -16 -5 -26 -8 -9 -19 -50 -25 -92 -6 -42 -13 -86
-15 -97 -8 -41 -20 -268 -20 -371 0 -163 14 -383 33 -515 17 -112 19 -120 42
-125 28 -7 28 -27 1 -47 -15 -10 -17 -19 -9 -58 13 -69 25 -124 43 -190 9 -33
20 -78 25 -100 10 -51 26 -95 62 -172 21 -47 33 -61 44 -56 14 5 14 3 3 -16
-8 -11 -21 -21 -29 -21 -21 0 -40 -20 -40 -42 0 -10 -4 -18 -10 -18 -14 0 -12
-13 5 -36 12 -16 16 -17 24 -5 5 8 7 20 4 28 -12 30 18 10 36 -24 10 -21 37
-49 60 -63 22 -14 41 -28 41 -31 0 -4 11 -10 25 -13 30 -8 33 -26 5 -26 -15 0
-20 -7 -20 -25 0 -14 -4 -25 -10 -25 -5 0 -10 5 -10 10 0 15 -52 12 -73 -5
-11 -7 -36 -17 -58 -20 -31 -5 -39 -11 -40 -28 0 -19 -2 -18 -11 7 -8 21 -6
44 7 95 10 36 22 70 26 76 14 15 10 26 -8 23 -10 -2 -17 3 -16 10 2 6 -1 12
-5 12 -9 0 -53 -131 -58 -175 -1 -16 -6 -60 -9 -97 -5 -54 -10 -68 -23 -68
-24 0 -49 -59 -72 -169 -21 -101 -27 -271 -10 -315 15 -40 62 -58 126 -50 54
6 66 0 42 -24 -9 -9 -9 -12 0 -12 7 0 12 -4 12 -10 0 -5 -6 -10 -13 -10 -7 0
-18 -12 -24 -27 -17 -39 -59 -111 -76 -131 -8 -9 -23 -33 -32 -52 -10 -19 -24
-39 -31 -45 -13 -10 -40 -45 -88 -116 -14 -20 -47 -60 -75 -89 -28 -29 -51
-56 -51 -59 0 -3 -19 -26 -41 -51 -23 -25 -53 -62 -66 -82 -14 -21 -30 -38
-34 -38 -5 0 -9 -6 -9 -14 0 -8 -8 -17 -18 -20 -10 -3 -26 -20 -36 -37 -10
-17 -29 -41 -42 -52 -13 -11 -24 -27 -24 -34 0 -7 -4 -13 -10 -13 -5 0 -10 -7
-10 -15 0 -7 -6 -18 -13 -22 -21 -13 -77 -143 -108 -251 -9 -33 -16 -41 -28
-36 -9 3 -30 10 -48 15 -18 6 -35 14 -38 19 -7 12 -140 2 -205 -16 -30 -8 -84
-27 -120 -40 -62 -24 -87 -35 -162 -69 -18 -8 -58 -24 -88 -35 -30 -12 -59
-25 -65 -30 -20 -16 -86 -50 -98 -50 -13 0 -219 -100 -227 -110 -3 -4 -21 -12
-40 -19 -19 -6 -51 -22 -70 -34 -19 -13 -59 -34 -87 -47 -29 -14 -53 -28 -53
-32 0 -5 -8 -8 -19 -8 -10 0 -30 -9 -44 -20 -14 -11 -29 -20 -34 -20 -4 0 -39
-20 -76 -45 -38 -25 -73 -45 -78 -45 -12 0 -153 -92 -157 -102 -2 -5 -7 -8
-12 -8 -13 0 -256 -169 -270 -188 -3 -4 -21 -19 -41 -34 -19 -14 -56 -46 -81
-70 -24 -23 -70 -67 -101 -96 -32 -29 -55 -58 -52 -63 4 -5 0 -9 -8 -9 -8 0
-26 -15 -40 -32 -14 -18 -49 -59 -79 -90 -29 -32 -66 -76 -83 -98 -16 -23 -37
-49 -45 -58 -9 -9 -28 -35 -43 -58 -15 -22 -36 -50 -47 -62 -11 -12 -20 -25
-20 -31 0 -5 -16 -32 -35 -61 -19 -29 -35 -57 -35 -63 0 -6 -6 -18 -13 -26
-17 -21 -73 -165 -86 -221 -17 -78 8 -229 86 -500 8 -30 21 -64 28 -75 7 -11
16 -36 20 -55 8 -41 88 -240 109 -273 8 -12 17 -33 21 -47 7 -28 135 -292 144
-300 4 -3 12 -17 18 -32 7 -15 25 -46 40 -70 15 -24 37 -61 50 -83 12 -22 27
-39 32 -37 6 1 11 -8 11 -21 0 -12 14 -37 30 -55 17 -18 30 -39 30 -46 0 -7
14 -28 30 -47 53 -60 60 -69 60 -77 0 -5 34 -44 76 -88 42 -43 85 -92 96 -107
12 -16 26 -26 34 -23 8 3 14 0 14 -7 0 -21 254 -245 288 -253 12 -4 22 -11 22
-16 0 -6 7 -8 15 -4 9 3 15 0 15 -9 0 -8 10 -20 23 -26 12 -7 34 -21 49 -33
61 -49 73 -56 88 -56 10 0 25 -9 35 -20 13 -14 22 -17 29 -10 15 15 26 12 26
-5 0 -9 12 -20 27 -26 25 -10 103 -48 111 -54 6 -5 -69 -180 -92 -214 -35 -53
-80 -124 -86 -137 -6 -14 -71 -91 -123 -146 -30 -32 -35 -43 -26 -54 7 -9 8
-14 1 -14 -6 0 -12 5 -14 10 -3 10 -318 -311 -385 -394 -7 -8 -20 -20 -30 -28
-10 -7 -34 -33 -54 -58 -20 -25 -48 -57 -62 -72 -14 -15 -31 -36 -39 -46 -7
-11 -30 -39 -51 -63 -20 -24 -62 -82 -92 -129 -30 -47 -63 -97 -75 -112 -11
-14 -20 -32 -20 -40 0 -7 -9 -24 -20 -38 -11 -14 -20 -28 -20 -32 0 -4 -12
-33 -26 -65 -33 -71 -94 -243 -87 -243 3 0 0 -6 -6 -14 -9 -11 -9 -16 0 -21 8
-6 8 -9 -1 -15 -6 -4 -17 -36 -25 -71 -33 -157 15 -449 74 -449 10 0 22 -7 25
-16 13 -34 301 -145 439 -169 134 -23 217 -23 217 1 0 14 3 14 15 4 18 -15 47
4 44 29 -3 16 15 134 32 208 5 23 9 54 9 70 0 15 7 48 16 73 30 86 117 285
134 305 16 19 80 130 80 139 0 3 -10 6 -22 8 -13 2 -23 10 -23 18 0 21 36 25
51 6 10 -15 15 -11 38 30 14 26 26 50 26 55 0 5 4 9 8 9 5 0 17 18 27 40 10
22 24 45 32 51 7 6 13 20 13 30 0 11 4 19 8 19 4 0 18 21 31 47 45 95 73 137
81 122 4 -8 4 -75 -1 -149 -5 -74 -6 -148 -4 -165 2 -16 7 -86 10 -155 10
-215 29 -364 67 -518 21 -88 62 -182 78 -182 6 0 10 -6 10 -13 0 -27 61 -135
86 -152 36 -23 95 -16 165 20 109 56 125 63 169 70 57 10 121 8 185 -5 28 -6
61 -12 74 -15 13 -2 26 -7 29 -10 3 -2 12 0 19 7 11 9 16 9 23 -3 15 -24 185
-19 235 7 50 26 76 66 57 91 -6 10 -18 29 -25 43 -6 14 -20 34 -30 45 -10 11
-28 42 -39 68 -11 26 -30 55 -42 65 -12 9 -21 22 -21 27 0 11 -49 115 -111
236 -19 37 -34 72 -34 79 0 7 -7 30 -17 51 -11 27 -21 36 -32 31 -14 -5 -14
-3 -3 10 10 12 11 22 3 36 -5 10 -20 47 -32 83 -12 35 -26 73 -32 84 -6 11
-12 25 -13 30 -2 9 -26 100 -55 205 -20 70 -95 424 -106 495 -3 22 -10 51 -16
65 -5 14 -11 50 -12 80 -1 30 -5 68 -8 83 -5 28 -17 99 -38 232 -6 38 -15 75
-21 82 -6 8 -7 13 -1 13 7 0 7 14 2 38 -5 20 -18 82 -29 137 -12 55 -26 110
-31 123 -5 13 -9 33 -9 45 0 12 -10 45 -21 73 -21 50 -21 52 -3 70 11 11 32
20 47 20 15 1 35 8 43 15 9 7 26 15 37 16 22 4 234 108 252 124 5 5 17 9 26 9
9 0 22 6 28 14 7 8 25 18 41 21 16 3 34 12 40 20 6 7 22 16 35 19 23 6 244
123 255 136 3 3 21 13 40 24 19 10 40 24 45 30 6 6 22 17 37 23 17 8 26 18 22
26 -3 10 5 16 24 20 16 3 49 23 72 44 39 35 56 51 123 121 12 12 25 21 29 20
3 -2 54 -49 113 -105 59 -57 111 -103 116 -103 6 0 25 -15 42 -33 32 -33 157
-133 216 -172 48 -32 262 -175 306 -205 57 -39 289 -150 350 -167 11 -4 40 -7
65 -7 25 -1 48 -4 51 -9 8 -11 59 -18 169 -22 74 -3 107 0 148 14 l52 18 0
-23 c0 -12 -5 -35 -10 -49 -6 -15 -13 -88 -16 -163 -3 -76 -8 -140 -10 -143
-3 -6 -17 -89 -30 -189 -8 -61 -36 -185 -43 -195 -4 -5 -8 -19 -8 -31 -1 -11
-15 -62 -32 -112 -17 -50 -31 -98 -31 -107 0 -20 -87 -187 -106 -201 -8 -6
-14 -16 -14 -23 0 -6 -4 -11 -10 -11 -5 0 -10 -5 -10 -11 0 -5 -14 -23 -31
-39 -19 -17 -28 -33 -24 -40 5 -9 1 -10 -14 -5 -15 5 -23 1 -28 -12 -3 -10
-19 -29 -34 -41 -16 -14 -25 -30 -22 -38 3 -9 -2 -14 -15 -14 -13 0 -26 -12
-36 -35 -9 -19 -23 -35 -31 -35 -8 0 -41 -27 -72 -61 -67 -70 -80 -89 -61 -89
7 0 -1 -8 -19 -16 -18 -9 -35 -25 -38 -35 -4 -10 -15 -19 -26 -19 -10 0 -19
-5 -19 -11 0 -7 -25 -40 -55 -74 -59 -68 -63 -75 -40 -75 8 0 15 -4 15 -10 0
-5 -11 -10 -24 -10 -29 0 -49 -22 -40 -44 4 -11 1 -16 -10 -16 -9 0 -16 -6
-16 -13 0 -7 -14 -27 -31 -45 -18 -18 -28 -36 -23 -43 4 -8 3 -9 -4 -5 -8 4
-12 0 -12 -11 0 -11 -4 -23 -8 -29 -10 -10 -38 -105 -53 -179 -13 -60 -12
-159 2 -163 13 -5 11 -32 -2 -32 -5 0 -8 -3 -5 -8 2 -4 5 -30 7 -57 1 -28 8
-60 15 -72 13 -20 12 -21 -24 -18 -20 1 -50 8 -67 15 -26 10 -129 25 -235 35
-69 6 -139 48 -119 71 6 8 7 39 0 91 -8 68 0 285 13 358 2 11 7 39 11 63 4 23
12 45 16 48 5 3 9 13 9 22 0 40 96 252 121 267 5 4 9 15 9 25 0 10 6 23 14 27
7 4 15 13 17 20 5 16 117 159 154 198 17 18 44 47 62 66 38 41 52 53 81 68 12
6 22 16 22 21 0 11 51 62 96 97 19 14 34 31 34 39 0 7 9 15 20 19 22 7 142
124 235 230 33 37 68 75 77 84 24 24 69 91 60 91 -4 0 -2 4 4 8 18 12 84 118
84 135 0 9 5 19 10 22 22 13 102 192 117 260 29 134 32 150 33 188 0 30 -4 37
-20 37 -30 0 -51 -47 -85 -191 -2 -9 -8 -25 -13 -35 -20 -41 -41 -90 -47 -112
-7 -26 -98 -176 -140 -231 -14 -19 -23 -41 -21 -48 3 -7 -1 -13 -9 -13 -8 0
-15 -4 -15 -8 0 -16 -62 -82 -327 -348 -150 -150 -273 -278 -273 -284 0 -5 -7
-10 -15 -10 -8 0 -15 -3 -15 -7 0 -5 -17 -26 -38 -48 -48 -50 -182 -224 -182
-236 0 -4 -18 -37 -40 -71 -22 -35 -40 -70 -40 -78 0 -8 -6 -27 -14 -41 -7
-14 -21 -52 -31 -85 -10 -32 -22 -64 -26 -69 -10 -13 -34 -144 -31 -167 1 -10
-2 -18 -6 -18 -16 0 -1 -386 17 -434 32 -82 88 -113 246 -136 50 -7 102 -19
116 -26 14 -7 35 -13 45 -13 10 0 60 -7 109 -16 134 -24 185 -18 185 21 0 8 4
14 8 14 5 0 5 26 1 58 -13 94 -4 290 15 346 15 40 15 50 4 57 -10 7 -10 9 0 9
6 0 12 7 12 15 0 8 9 29 20 47 11 18 20 43 20 55 0 12 5 25 11 28 5 4 8 12 6
18 -1 5 6 20 17 33 12 12 35 49 51 81 17 32 40 72 51 88 12 17 24 39 28 50 3
11 28 45 56 75 27 30 45 57 40 58 -6 2 -8 8 -5 12 3 5 12 7 20 4 9 -4 22 7 34
28 22 37 28 45 85 108 23 25 59 67 81 93 22 27 46 55 53 62 6 8 12 17 12 21 0
13 73 103 81 99 7 -5 24 -129 20 -156 -1 -9 3 -29 10 -45 6 -16 15 -51 19 -79
11 -66 39 -176 51 -197 5 -10 9 -32 9 -50 0 -18 9 -53 20 -77 11 -24 20 -50
20 -58 0 -20 66 -206 102 -288 64 -144 161 -335 176 -344 5 -3 13 -17 17 -31
13 -43 73 -109 94 -103 10 3 22 0 25 -6 4 -6 0 -11 -8 -11 -22 0 -20 -17 4
-32 11 -7 20 -17 20 -23 0 -6 12 -19 27 -30 14 -11 32 -26 40 -33 7 -7 17 -10
23 -7 5 3 10 0 10 -7 0 -24 63 -62 138 -83 31 -9 91 28 170 104 35 34 68 61
74 61 6 0 26 17 44 38 20 24 49 44 76 52 48 16 108 48 108 59 0 4 21 15 46 26
64 26 87 58 78 110 -9 56 -16 67 -94 145 -37 37 -72 75 -76 83 -24 41 -100
112 -117 109 -15 -3 -18 0 -12 17 4 12 2 21 -4 21 -6 0 -11 7 -11 15 0 8 -4
15 -10 15 -5 0 -10 5 -10 11 0 6 -12 26 -27 44 -51 59 -63 75 -63 83 0 4 -18
33 -40 66 -22 32 -40 67 -40 76 0 10 -7 23 -15 30 -8 7 -15 17 -15 23 0 6 -6
18 -14 26 -8 9 -21 38 -30 65 -9 27 -26 62 -37 78 -11 15 -17 28 -13 28 5 0 3
5 -4 12 -7 7 -12 23 -12 37 0 13 -6 32 -14 40 -26 30 -121 313 -157 471 -6 25
-13 52 -17 60 -3 8 -6 22 -7 30 -1 8 -4 33 -8 55 -4 22 -12 69 -17 105 -6 36
-15 88 -20 115 -6 28 -17 84 -25 125 -8 41 -19 76 -24 78 -5 2 -7 10 -4 18 6
17 -14 135 -33 187 -8 21 -17 57 -19 80 -3 23 -15 91 -26 151 -11 59 -19 109
-17 110 56 37 162 135 155 143 -4 3 -2 14 4 25 8 14 17 18 34 14 18 -5 25 -1
30 14 3 11 12 20 20 20 7 0 21 12 31 28 9 15 40 51 68 81 96 103 111 120 141
161 17 22 45 57 63 78 17 20 30 45 28 54 -2 10 1 15 9 12 7 -3 26 13 43 38 17
24 42 55 57 70 14 16 24 28 21 28 -3 0 5 11 17 24 59 64 122 138 126 148 2 7
12 21 23 32 36 41 68 84 68 93 0 5 14 25 31 44 17 19 42 52 56 74 14 22 34 50
46 62 11 12 17 29 14 37 -4 10 -1 13 9 9 17 -6 19 8 3 24 -15 15 -3 33 22 33
21 0 58 36 59 56 0 6 11 21 25 34 14 13 25 34 25 47 0 14 6 23 16 23 8 0 21
15 29 33 7 17 22 44 34 58 64 82 201 375 201 431 0 15 7 33 15 42 8 8 15 25
15 38 0 23 -40 149 -50 158 -3 3 -12 24 -18 47 -7 24 -21 51 -32 60 -10 10
-22 32 -26 48 -4 17 -18 44 -31 61 -12 17 -23 34 -23 37 0 4 -17 32 -37 63
-21 31 -52 78 -69 105 -17 27 -38 57 -47 67 -9 10 -17 22 -17 25 0 4 -7 15
-15 25 -41 46 -65 81 -65 95 0 8 -16 29 -35 46 -19 17 -35 35 -35 41 0 15 -80
120 -91 120 -5 0 -9 5 -9 12 0 18 -50 78 -66 78 -7 0 -14 6 -14 13 -1 18 -181
249 -280 357 -27 30 -74 87 -103 125 -29 39 -69 86 -88 106 -54 58 -118 130
-194 218 -38 45 -94 105 -124 134 -30 29 -79 78 -110 111 -78 82 -170 149
-202 149 -17 0 -25 5 -23 12 3 7 -2 17 -10 24 -12 10 -16 8 -21 -8 -7 -22 -45
-30 -45 -10 0 6 7 9 15 5 8 -3 15 -1 15 3 0 5 -6 12 -12 14 -10 4 -9 6 1 6 19
1 -6 31 -26 31 -13 0 -116 44 -163 69 -8 4 -15 14 -16 22 0 8 -2 24 -2 37 -1
12 -9 22 -17 22 -17 0 -20 17 -5 22 7 2 5 19 -5 47 -8 24 -15 54 -15 67 0 12
-4 26 -10 29 -5 3 -10 17 -10 31 0 25 -14 32 -24 12 -4 -7 -4 -2 -2 11 7 34
-21 87 -93 175 -35 43 -70 91 -77 105 -8 15 -32 47 -54 72 -22 24 -40 48 -40
53 0 10 -49 86 -61 96 -13 11 -64 98 -107 184 -25 50 -50 94 -55 97 -14 9 1
29 21 29 9 0 30 7 46 15 15 8 34 15 41 15 7 0 18 7 25 15 7 8 21 15 32 15 10
0 21 7 24 15 4 8 12 15 19 15 18 0 76 50 70 60 -3 5 1 10 7 12 21 7 17 197 -6
293 -28 122 -58 189 -84 193 -12 2 -22 10 -22 19 0 13 -8 14 -42 9 -35 -6 -41
-5 -30 5 6 7 12 33 12 59 0 25 5 63 9 85 5 22 12 72 16 110 3 39 14 102 22
140 9 39 16 77 14 87 -1 9 3 19 9 23 5 3 10 17 10 30 0 13 6 39 14 57 21 52
47 129 59 178 6 25 14 47 18 50 4 3 11 21 17 40 18 60 73 185 83 188 5 2 9 12
9 21 0 10 11 30 25 45 14 15 25 32 25 37 0 20 214 276 233 278 4 1 27 20 51
44 46 43 76 66 160 120 27 18 61 40 75 49 14 10 35 22 46 27 11 5 30 19 42 30
12 12 24 21 26 21 8 0 142 92 158 109 9 9 27 23 40 31 53 33 269 265 269 289
0 6 5 11 10 11 6 0 10 6 10 13 0 6 9 30 20 52 18 37 53 132 79 216 6 19 11 49
11 66 0 16 3 33 7 37 4 4 8 26 9 49 1 23 3 68 4 99 2 32 1 61 -3 64 -3 4 -2
15 4 26 8 16 7 19 -7 16 -9 -2 -19 3 -21 10 -3 6 2 12 11 12 13 0 16 11 16 55
0 84 -23 72 -59 -31 -11 -33 -21 -70 -21 -82 0 -12 -4 -22 -9 -22 -5 0 -15
-16 -21 -36 -7 -20 -18 -48 -26 -62 -8 -15 -14 -32 -14 -39 0 -6 -20 -36 -45
-66 -25 -31 -45 -60 -45 -65 0 -6 -15 -26 -32 -44 -18 -19 -50 -53 -70 -75
-21 -22 -38 -45 -38 -51 0 -7 -3 -12 -8 -12 -13 0 -157 -132 -154 -142 1 -5
-1 -7 -6 -4 -9 5 -53 -26 -81 -56 -8 -10 -20 -18 -26 -18 -6 0 -32 -19 -59
-42 -27 -24 -58 -45 -70 -48 -11 -3 -25 -15 -31 -27 -5 -12 -16 -21 -25 -21
-8 1 -51 -23 -96 -53 -44 -30 -99 -65 -122 -79 -23 -14 -44 -33 -48 -43 -3 -9
-9 -15 -13 -13 -9 6 -90 -51 -143 -101 -118 -111 -218 -215 -218 -226 0 -7
-11 -21 -25 -31 -27 -20 -85 -100 -85 -116 0 -5 -6 -13 -13 -17 -7 -4 -26 -33
-41 -63 -16 -30 -34 -62 -41 -70 -13 -17 -85 -166 -85 -177 0 -5 -10 -24 -22
-43 l-21 -35 -19 90 c-10 50 -25 126 -32 170 -8 44 -15 82 -16 85 -1 3 -1 24
0 46 1 23 -4 45 -10 49 -12 8 -12 463 1 580 19 171 75 452 99 496 4 9 11 42
15 75 4 32 11 64 16 70 5 6 26 62 48 125 21 63 42 122 46 132 4 10 3 17 -4 17
-6 0 -11 7 -11 16 0 10 6 14 15 10 8 -3 15 -1 15 4 0 6 13 38 29 72 16 35 32
74 36 88 3 14 12 36 18 49 9 19 9 25 0 28 -7 3 -13 9 -13 15 0 6 7 7 15 4 15
-5 19 1 41 59 4 11 6 26 5 33 -1 6 3 12 9 12 5 0 10 5 10 11 0 6 18 47 40 90
22 44 40 82 40 84 0 10 -26 4 -37 -9z m-95 -198 c-9 -18 -21 -44 -26 -58 -6
-14 -31 -68 -55 -120 -24 -52 -48 -106 -52 -120 -4 -14 -11 -27 -14 -30 -9 -7
-105 -192 -135 -260 -6 -14 -14 -27 -17 -30 -3 -3 -13 -32 -23 -65 -10 -33
-31 -98 -48 -145 -16 -47 -35 -112 -42 -145 -7 -33 -20 -77 -29 -97 -10 -24
-12 -40 -6 -44 7 -4 7 -10 0 -18 -5 -6 -13 -35 -17 -64 -3 -28 -11 -52 -16
-52 -5 0 -6 -4 -3 -10 3 -5 1 -37 -5 -70 -12 -68 -23 -570 -12 -570 4 0 7 -19
7 -42 0 -23 10 -119 22 -213 12 -93 22 -176 23 -183 0 -9 7 -11 20 -7 11 4 20
2 20 -4 0 -6 -9 -11 -19 -11 -16 0 -19 -7 -18 -47 1 -27 4 -50 8 -53 7 -7 29
-107 29 -135 0 -13 7 -31 16 -39 8 -9 12 -21 9 -26 -7 -11 -11 -81 -14 -245
l-2 -90 -25 60 c-14 33 -30 80 -36 105 -6 25 -14 50 -19 55 -4 6 -10 24 -13
40 -3 17 -17 84 -31 150 -14 66 -27 136 -30 155 -2 19 -8 73 -14 120 -5 47
-15 132 -22 190 -6 58 -14 109 -16 113 -6 10 -6 366 1 472 6 115 43 350 72
468 14 56 27 113 30 127 3 14 9 42 15 63 8 29 7 42 -3 55 -7 9 -8 13 -3 10 19
-11 32 5 48 57 37 120 88 241 136 325 5 8 24 44 42 80 34 67 83 146 118 190
11 14 21 31 21 38 0 6 4 12 10 12 5 0 20 15 32 33 37 53 91 117 97 112 2 -3
-3 -20 -11 -37z m-247 -585 c-12 -20 -14 -14 -5 12 4 9 9 14 11 11 3 -2 0 -13
-6 -23z m1719 -49 c-5 -13 -9 -28 -8 -32 1 -4 -4 -19 -10 -33 -5 -14 -12 -39
-15 -55 -2 -16 -12 -46 -21 -68 -9 -21 -16 -45 -16 -52 0 -8 -21 -44 -47 -82
-50 -71 -73 -98 -73 -85 0 4 -12 -6 -28 -22 -15 -17 -40 -39 -55 -50 -15 -11
-27 -25 -27 -32 0 -7 -6 -10 -13 -7 -7 2 -42 -17 -78 -44 -35 -27 -74 -52 -86
-56 -12 -4 -24 -13 -26 -20 -3 -8 -23 -20 -44 -27 -21 -6 -52 -23 -69 -36 -17
-12 -36 -23 -41 -23 -6 0 -17 -7 -24 -16 -7 -9 -36 -27 -64 -41 -66 -32 -94
-48 -108 -62 -6 -6 -19 -11 -29 -11 -10 0 -30 -13 -45 -30 -14 -16 -33 -30
-42 -30 -18 0 -71 -52 -71 -69 0 -6 -6 -11 -13 -11 -15 0 -68 -50 -117 -110
-19 -24 -45 -53 -57 -65 -13 -12 -23 -30 -23 -39 0 -9 -5 -16 -10 -16 -6 0
-14 -8 -17 -17 -4 -10 -14 -25 -23 -33 -28 -26 -57 -75 -53 -87 3 -7 -1 -13
-7 -13 -20 0 -42 -30 -42 -56 0 -13 -4 -24 -8 -24 -5 0 -14 -16 -20 -35 -6
-18 -22 -50 -36 -71 -25 -37 -54 -107 -54 -134 0 -8 -12 -37 -26 -64 -20 -37
-25 -59 -21 -88 3 -21 2 -38 -3 -38 -4 0 -15 -26 -24 -57 -14 -52 -14 -59 -1
-69 19 -14 19 -24 0 -24 -8 0 -15 5 -15 12 0 21 -14 -3 -15 -25 0 -12 -7 -39
-14 -60 -7 -20 -10 -50 -6 -67 4 -17 2 -30 -3 -30 -10 0 -24 -189 -15 -204 11
-16 10 -70 -1 -85 -7 -9 -5 -17 8 -26 33 -25 -48 -10 -101 17 l-48 26 -1 69
c-2 62 34 329 50 380 4 12 9 30 11 41 7 39 46 168 55 184 6 10 10 26 10 36 0
10 7 27 15 38 8 10 15 26 15 34 0 8 12 38 25 65 14 28 25 58 25 68 0 9 4 17 8
17 5 0 33 47 62 105 29 58 57 105 62 105 4 0 8 6 8 14 0 7 7 19 15 26 8 7 15
18 15 25 0 7 17 31 38 52 49 53 62 70 62 83 0 5 3 10 8 10 4 0 42 33 84 73
109 102 195 177 204 177 8 0 125 79 134 90 11 15 116 80 127 80 7 0 13 4 13 8
0 4 21 21 47 38 26 16 90 58 143 93 52 36 109 74 127 85 18 12 32 26 33 31 0
6 15 19 33 29 41 25 217 203 217 222 0 8 9 14 20 14 11 0 20 5 20 11 0 10 11
26 60 85 19 25 50 90 50 107 0 10 4 16 10 12 6 -4 6 -15 0 -31z m-1740 -13 c0
-6 -4 -13 -10 -16 -5 -3 -10 1 -10 9 0 9 5 16 10 16 6 0 10 -4 10 -9z m1238
-439 c2 -7 -2 -10 -12 -6 -9 3 -16 11 -16 16 0 13 23 5 28 -10z m-1398 -108
c0 -8 -4 -12 -10 -9 -5 3 -10 10 -10 16 0 5 5 9 10 9 6 0 10 -7 10 -16z m10
-49 c11 -13 10 -14 -4 -9 -9 3 -16 10 -16 15 0 13 6 11 20 -6z m30 -274 c0 -6
-4 -13 -10 -16 -5 -3 -10 1 -10 9 0 9 5 16 10 16 6 0 10 -4 10 -9z m-30 -51
c0 -5 -4 -10 -10 -10 -5 0 -10 5 -10 10 0 6 5 10 10 10 6 0 10 -4 10 -10z
m880 -119 c0 -13 -37 -24 -50 -16 -6 4 -8 11 -5 16 8 12 55 12 55 0z m-1090
-151 c0 -5 -4 -10 -10 -10 -5 0 -10 5 -10 10 0 6 5 10 10 10 6 0 10 -4 10 -10z
m815 -150 c-3 -5 -10 -10 -16 -10 -5 0 -9 5 -9 10 0 6 7 10 16 10 8 0 12 -4 9
-10z m-578 -72 c-3 -8 -6 -5 -6 6 -1 11 2 17 5 13 3 -3 4 -12 1 -19z m578 2
c3 -5 -1 -10 -9 -10 -9 0 -16 5 -16 10 0 6 4 10 9 10 6 0 13 -4 16 -10z m-568
-72 c-3 -8 -6 -5 -6 6 -1 11 2 17 5 13 3 -3 4 -12 1 -19z m433 -103 c0 -8 -4
-15 -9 -15 -13 0 -22 16 -14 24 11 11 23 6 23 -9z m-340 -85 c0 -5 -4 -10 -10
-10 -5 0 -10 5 -10 10 0 6 5 10 10 10 6 0 10 -4 10 -10z m-10 -84 c0 -3 -4 -8
-10 -11 -5 -3 -10 -1 -10 4 0 6 5 11 10 11 6 0 10 -2 10 -4z m160 -620 c0 -9
-30 -14 -35 -6 -4 6 3 10 14 10 12 0 21 -2 21 -4z m10 -77 c0 -6 -4 -7 -10 -4
-5 3 -10 11 -10 16 0 6 5 7 10 4 6 -3 10 -11 10 -16z m130 -210 c-7 -12 -7
-19 -1 -19 6 0 6 -12 0 -32 -5 -18 -9 -67 -9 -108 0 -74 -33 -200 -52 -200 -4
0 -8 -6 -8 -13 0 -22 -73 -85 -125 -107 -27 -12 -94 -35 -147 -50 -54 -16
-102 -31 -108 -35 -6 -4 -52 -12 -103 -19 l-92 -11 2 178 c1 98 4 181 7 184 3
4 6 19 6 33 0 25 4 28 52 34 60 8 141 28 148 36 3 3 25 12 50 19 25 7 61 21
80 31 19 10 79 39 133 65 53 27 97 51 97 55 0 4 14 13 30 20 17 7 30 18 31 24
1 6 5 -6 10 -27 6 -25 5 -45 -1 -58z m60 -125 c0 -8 -4 -12 -10 -9 -5 3 -10
10 -10 16 0 5 5 9 10 9 6 0 10 -7 10 -16z m27 -239 c0 -8 -4 -15 -9 -15 -10 0
-11 14 -1 23 9 10 10 9 10 -8z m-7 -61 c0 -8 -5 -12 -10 -9 -6 4 -8 11 -5 16
9 14 15 11 15 -7z m-770 -124 c0 -5 -4 -10 -10 -10 -5 0 -10 5 -10 10 0 6 5
10 10 10 6 0 10 -4 10 -10z m502 -35 c2 -49 125 -332 159 -366 11 -11 19 -26
19 -34 0 -7 7 -18 16 -23 9 -5 16 -12 15 -15 -1 -11 33 -69 51 -88 10 -10 20
-30 24 -44 4 -15 17 -33 30 -42 13 -8 24 -21 24 -29 0 -7 16 -29 35 -48 19
-19 37 -46 41 -60 3 -14 10 -23 15 -20 5 3 9 -3 9 -14 0 -10 14 -38 30 -60 17
-23 30 -46 30 -52 0 -6 12 -28 26 -50 31 -47 29 -74 -8 -78 -18 -2 -34 5 -52
25 -14 15 -36 29 -49 29 -12 1 -78 5 -147 8 -169 10 -163 8 -177 58 -12 43
-24 110 -28 158 -2 14 -8 54 -14 90 -7 36 -15 88 -18 115 -8 68 -19 95 -40 95
-17 1 -17 1 0 11 14 8 16 14 7 24 -7 8 -9 18 -6 24 6 9 -14 80 -34 126 -5 11
-12 45 -16 75 -3 30 -11 58 -17 61 -5 4 4 10 22 14 32 7 40 19 19 29 -7 3 -2
3 11 0 22 -6 23 -4 16 28 -3 18 -9 41 -12 52 -3 11 -1 17 7 14 6 -2 12 -8 12
-13z m78 -70 c0 -8 -4 -15 -10 -15 -5 0 -10 7 -10 15 0 8 5 15 10 15 6 0 10
-7 10 -15z m-320 -35 c0 -5 -4 -10 -10 -10 -5 0 -10 5 -10 10 0 6 5 10 10 10
6 0 10 -4 10 -10z m140 -6 c0 -8 -5 -12 -10 -9 -6 4 -8 11 -5 16 9 14 15 11
15 -7z m-190 -39 c0 -8 -4 -15 -9 -15 -13 0 -22 16 -14 24 11 11 23 6 23 -9z
m-10 -53 c0 -10 -9 -37 -20 -60 -12 -24 -18 -46 -16 -51 3 -4 -1 -17 -9 -27
-8 -10 -15 -29 -15 -41 0 -13 -4 -23 -10 -23 -5 0 -10 -12 -10 -27 0 -16 -12
-55 -26 -88 -15 -33 -28 -73 -29 -89 -2 -16 -7 -31 -12 -35 -14 -10 -52 -94
-63 -138 -6 -24 -14 -43 -18 -43 -8 0 -32 -48 -32 -64 0 -6 -18 -31 -40 -56
-22 -24 -40 -51 -40 -60 0 -8 -10 -31 -23 -50 -13 -19 -33 -55 -46 -80 -12
-25 -30 -51 -38 -57 -9 -7 -18 -24 -19 -39 -2 -14 -12 -33 -23 -41 -12 -8 -21
-20 -21 -27 0 -7 -11 -23 -25 -36 -14 -13 -25 -29 -25 -36 0 -6 -7 -17 -15
-24 -8 -7 -15 -20 -15 -29 0 -9 -7 -24 -15 -35 -13 -17 -15 -17 -52 10 -21 16
-39 32 -41 37 -2 4 -8 7 -13 7 -9 0 -55 30 -91 59 -16 12 -16 17 -4 40 8 14
31 60 51 101 20 41 42 81 47 88 6 7 20 29 32 50 28 51 78 118 154 206 34 40
62 78 62 84 0 6 8 13 18 17 9 3 41 39 71 80 30 41 59 76 65 78 22 9 72 90 59
94 -7 3 -13 12 -13 21 1 14 3 14 16 -3 15 -20 15 -20 34 5 11 14 20 29 20 34
0 5 16 31 35 57 19 27 35 51 35 54 0 2 16 29 35 59 19 30 35 59 35 64 0 12 22
32 37 32 7 0 13 -8 13 -18z m210 -70 c0 -10 -22 -32 -32 -32 -13 0 -9 28 5 33
19 8 27 8 27 -1z m-65 -199 c4 -32 13 -72 20 -90 7 -17 11 -33 9 -36 -3 -2 2
-40 11 -83 19 -100 55 -351 61 -427 4 -52 2 -61 -18 -77 -13 -11 -29 -19 -36
-20 -7 0 -15 -7 -18 -15 -3 -8 -14 -17 -24 -20 -15 -5 -56 -44 -143 -137 -10
-11 -16 -26 -13 -34 3 -8 1 -12 -4 -9 -5 3 -20 -7 -34 -22 -14 -15 -41 -46
-60 -68 -20 -22 -36 -43 -36 -46 0 -3 -11 -18 -25 -33 -14 -15 -23 -32 -20
-37 4 -5 -1 -9 -9 -9 -9 0 -23 -15 -32 -32 -21 -41 -50 -82 -87 -122 -16 -17
-35 -43 -43 -58 -8 -16 -18 -28 -23 -28 -13 0 -24 106 -12 127 5 10 35 70 65
134 31 64 63 122 71 129 8 7 15 23 15 36 0 13 6 27 13 31 14 9 51 73 42 73 -4
0 1 7 9 16 9 8 16 21 16 29 0 7 17 46 39 87 21 40 42 84 45 98 4 14 16 43 26
65 30 65 80 209 80 232 0 11 7 37 15 57 9 20 13 41 9 47 -3 5 -2 15 3 22 6 7
15 39 22 72 7 33 17 68 22 77 5 10 9 28 9 42 0 36 12 86 20 86 4 0 11 -26 15
-57z m-565 -243 c0 -5 -4 -10 -10 -10 -5 0 -10 5 -10 10 0 6 5 10 10 10 6 0
10 -4 10 -10z m-40 -20 c0 -5 -2 -10 -4 -10 -3 0 -8 5 -11 10 -3 6 -1 10 4 10
6 0 11 -4 11 -10z m800 6 c0 -2 -7 -6 -15 -10 -8 -3 -15 -1 -15 4 0 6 7 10 15
10 8 0 15 -2 15 -4z m-390 -46 c0 -5 -4 -10 -10 -10 -5 0 -10 5 -10 10 0 6 5
10 10 10 6 0 10 -4 10 -10z m-113 -156 c-9 -9 -28 6 -21 18 4 6 10 6 17 -1 6
-6 8 -13 4 -17z m941 -225 c26 -18 51 -39 55 -46 4 -7 18 -13 29 -13 20 0 19
-2 -8 -27 -17 -16 -54 -57 -83 -93 -28 -36 -61 -76 -73 -90 -11 -13 -27 -39
-36 -57 -9 -18 -22 -33 -29 -33 -7 0 -13 -5 -13 -10 0 -11 -47 -85 -99 -155
-16 -22 -34 -52 -39 -66 -10 -25 -51 -91 -72 -117 -6 -7 -18 -28 -25 -47 -8
-18 -19 -36 -24 -40 -5 -3 -16 -18 -24 -33 -66 -132 -100 -192 -112 -202 -8
-7 -15 -18 -15 -25 0 -7 -12 -30 -26 -51 -15 -21 -43 -70 -64 -109 -21 -38
-56 -103 -79 -144 -23 -41 -44 -84 -47 -95 -3 -12 -13 -32 -23 -45 -17 -23
-21 -23 -64 -13 -118 30 -481 38 -512 12 -12 -10 -15 -10 -15 0 0 9 -19 10
-75 5 l-74 -7 21 43 c11 24 26 51 34 59 7 8 31 51 54 95 41 79 69 126 142 238
21 32 41 69 44 83 3 13 10 24 15 24 5 0 13 8 16 18 4 9 14 24 22 32 16 15 33
43 65 105 9 17 32 48 51 70 19 22 35 47 35 55 1 8 13 30 29 47 25 31 29 32 62
22 44 -14 543 -24 588 -12 19 5 36 14 38 20 9 26 -194 58 -240 38 -10 -4 -24
-2 -33 6 -18 15 -230 15 -309 0 -25 -5 -45 -7 -45 -5 0 7 94 129 115 149 11
11 46 54 78 96 31 42 64 82 72 89 8 7 12 16 9 21 -3 5 0 9 6 9 6 0 23 13 38
28 82 85 207 143 420 193 108 25 162 20 220 -22z m-908 -39 c0 -5 -4 -10 -10
-10 -5 0 -10 5 -10 10 0 6 5 10 10 10 6 0 10 -4 10 -10z m1170 -90 c0 -5 -7
-10 -15 -10 -8 0 -15 5 -15 10 0 6 7 10 15 10 8 0 15 -4 15 -10z m290 -24 c0
-3 -4 -8 -10 -11 -5 -3 -10 -1 -10 4 0 6 5 11 10 11 6 0 10 -2 10 -4z m-2220
-52 c49 -23 90 -54 90 -69 0 -3 -10 -5 -23 -5 -14 0 -35 -15 -57 -42 -19 -23
-35 -44 -35 -47 0 -3 -19 -31 -43 -62 -23 -31 -42 -65 -42 -77 0 -12 -8 -23
-20 -27 -20 -6 -74 -86 -106 -155 -9 -19 -19 -37 -23 -40 -4 -3 -13 -20 -21
-38 -14 -35 -37 -49 -106 -63 -22 -4 -67 -20 -100 -35 -32 -15 -63 -28 -69
-30 -32 -8 -150 -57 -169 -69 -13 -9 -34 -18 -47 -20 -12 -3 -27 -9 -33 -15
-5 -5 -18 -10 -28 -10 -10 0 -23 -9 -30 -19 -6 -10 -17 -17 -23 -14 -7 2 -32
-6 -56 -18 -23 -13 -50 -24 -58 -25 -9 -1 -23 -4 -32 -8 -10 -5 4 35 41 111
113 234 150 312 150 319 0 4 15 27 33 53 17 25 38 58 46 74 8 15 18 27 21 27
4 0 13 14 20 30 7 17 18 30 25 30 7 0 15 7 18 15 3 8 25 24 49 35 24 12 54 27
68 35 14 7 55 28 93 46 37 18 67 37 67 41 0 4 3 7 8 6 4 0 14 1 22 5 8 3 44
16 80 28 36 12 69 26 75 31 5 4 22 8 37 8 15 0 28 5 28 10 0 20 94 10 150 -16z
m2147 0 c-7 -7 -37 7 -37 17 0 6 9 5 21 -1 11 -7 19 -14 16 -16z m-138 -19
c43 -15 166 -105 236 -172 22 -21 50 -45 61 -53 11 -8 30 -30 43 -48 22 -31
23 -40 17 -110 -4 -43 -7 -88 -7 -101 1 -15 -3 -21 -12 -18 -10 4 -14 -5 -15
-31 -1 -19 -5 -38 -10 -41 -5 -3 -15 -24 -22 -46 -7 -22 -20 -53 -29 -70 -9
-16 -26 -58 -36 -92 -11 -35 -23 -63 -27 -63 -5 0 -8 -9 -8 -19 0 -11 -3 -21
-7 -23 -11 -4 -63 -103 -63 -119 0 -8 -5 -21 -10 -29 -8 -13 -14 -10 -35 15
-13 17 -24 34 -25 39 0 4 -12 22 -26 40 -14 17 -55 72 -90 121 -36 50 -84 110
-108 135 -23 25 -62 69 -87 99 -24 29 -73 76 -109 105 -109 86 -104 79 -85
117 10 17 26 41 36 52 18 20 23 37 20 65 -1 6 4 12 11 12 19 1 65 44 72 68 11
34 143 149 189 166 54 19 76 19 126 1z m-1824 -119 c42 -40 73 -76 67 -79 -13
-9 16 -97 34 -104 16 -6 19 -33 5 -33 -6 0 -7 -33 -4 -77 3 -43 5 -85 4 -93
-4 -73 -9 -99 -23 -127 -9 -18 -20 -47 -23 -65 -4 -18 -12 -39 -17 -45 -6 -7
-8 -20 -4 -28 3 -8 1 -15 -5 -15 -6 0 -8 -4 -4 -9 3 -5 -6 -26 -20 -46 -13
-20 -27 -51 -30 -69 -4 -17 -20 -47 -37 -66 -16 -19 -39 -54 -51 -78 -15 -33
-24 -42 -38 -39 -10 3 -19 1 -21 -4 -2 -4 -10 -4 -18 1 -12 7 -11 10 8 17 l22
8 -20 40 c-11 22 -20 44 -20 50 0 6 -11 33 -24 61 -13 27 -33 72 -46 99 -45
102 -115 195 -146 195 -8 0 -14 -6 -14 -14 0 -8 -6 -17 -12 -20 -10 -3 -9 -8
2 -18 32 -27 49 -62 43 -86 -3 -15 -2 -23 3 -19 6 3 8 -9 6 -28 -2 -18 1 -36
7 -39 6 -4 11 -19 11 -34 0 -15 7 -52 15 -82 9 -35 14 -102 14 -185 0 -176 -2
-192 -34 -253 -22 -40 -25 -56 -17 -64 16 -16 15 -28 -3 -28 -8 0 -15 6 -15
13 0 6 -12 -1 -26 -18 -55 -67 -160 -168 -189 -182 -16 -9 -47 -30 -67 -48
-21 -17 -58 -42 -83 -55 -25 -13 -45 -26 -45 -30 0 -5 -11 -11 -24 -14 -13 -3
-39 -21 -57 -40 -17 -19 -42 -36 -55 -39 -21 -4 -25 1 -35 37 -17 64 -43 116
-57 116 -8 0 -10 8 -6 24 5 20 -33 171 -68 271 -6 17 -12 44 -15 60 -3 17 -11
45 -19 63 -8 18 -13 36 -11 40 7 11 -40 226 -50 229 -4 2 -7 23 -5 48 3 34 10
48 30 61 15 10 35 26 46 36 11 10 23 18 28 18 4 0 45 18 90 39 46 22 153 67
238 101 85 34 181 72 213 86 32 13 69 24 83 24 29 0 75 38 72 60 -3 23 12 61
34 84 10 11 25 32 32 46 43 80 56 101 99 160 26 36 51 70 55 75 4 6 23 33 41
62 19 29 40 54 48 58 12 4 13 8 3 20 -10 12 -9 15 4 15 9 0 16 7 16 15 0 8 2
15 3 15 2 0 39 -33 82 -74z m-1000 -164 c-115 -173 -178 -287 -190 -339 -3
-18 -11 -35 -16 -38 -5 -4 -9 -16 -9 -28 0 -13 -8 -39 -19 -60 -10 -20 -22
-62 -26 -93 -6 -53 -9 -57 -43 -70 -20 -8 -64 -28 -97 -44 -33 -15 -87 -40
-120 -55 -114 -51 -250 -119 -280 -141 -16 -12 -47 -27 -67 -33 -21 -7 -40
-17 -43 -22 -4 -5 -13 -9 -22 -9 -8 0 -35 -14 -60 -30 -25 -17 -47 -29 -49
-28 -3 3 14 39 60 128 13 25 21 51 19 58 -3 6 -1 12 5 12 6 0 13 13 17 29 3
16 13 35 21 42 8 6 14 22 14 35 0 13 4 24 10 24 5 0 17 16 25 36 17 40 80 116
89 106 3 -3 6 2 6 12 0 9 4 15 9 12 4 -3 19 6 31 19 13 14 30 25 37 25 8 0 16
7 19 15 4 8 12 15 18 15 7 0 21 8 32 18 10 9 36 28 56 42 21 14 38 28 38 33 0
4 7 7 15 7 8 0 15 5 15 10 0 6 5 10 10 10 23 0 68 43 63 58 -5 12 -1 14 15 10
12 -4 25 -2 28 3 3 5 12 9 19 9 17 0 105 60 105 72 0 4 9 8 20 8 20 0 31 6 71
43 10 9 25 17 33 17 8 0 20 14 28 30 7 17 18 30 24 30 6 0 19 9 29 20 11 12
34 28 52 37 18 8 33 22 33 30 0 8 4 12 10 8 5 -3 -11 -36 -35 -73z m1305 68
c0 -5 -2 -10 -4 -10 -3 0 -8 5 -11 10 -3 6 -1 10 4 10 6 0 11 -4 11 -10z m-20
-67 c0 -5 -5 -15 -10 -23 -8 -12 -10 -11 -10 8 0 12 5 22 10 22 6 0 10 -3 10
-7z m-1410 -53 c0 -5 -4 -10 -10 -10 -5 0 -10 5 -10 10 0 6 5 10 10 10 6 0 10
-4 10 -10z m3497 -126 c-3 -3 -12 -4 -19 -1 -8 3 -5 6 6 6 11 1 17 -2 13 -5z
m-2197 -13 c0 -6 -4 -13 -10 -16 -5 -3 -10 1 -10 9 0 9 5 16 10 16 6 0 10 -4
10 -9z m40 -1 c0 -5 -4 -10 -10 -10 -5 0 -10 5 -10 10 0 6 5 10 10 10 6 0 10
-4 10 -10z m1075 -10 c-3 -5 -10 -10 -16 -10 -5 0 -9 5 -9 10 0 6 7 10 16 10
8 0 12 -4 9 -10z m1081 -22 c17 -18 43 -51 59 -73 41 -55 80 -95 94 -95 6 0
11 -9 11 -19 0 -10 7 -21 15 -25 8 -3 15 -12 15 -20 0 -9 22 -37 48 -63 26
-26 54 -61 62 -77 8 -16 22 -31 30 -33 9 -2 22 -19 29 -36 14 -31 78 -133 101
-159 38 -45 73 -115 75 -147 2 -51 -26 -146 -63 -216 -46 -87 -53 -110 -39
-125 9 -10 9 -12 -4 -7 -11 3 -30 -17 -67 -73 -49 -74 -64 -109 -42 -95 6 3
10 1 10 -5 0 -7 -7 -9 -15 -6 -10 4 -19 -2 -24 -17 -5 -12 -20 -35 -35 -50
-14 -15 -29 -39 -32 -52 -3 -14 -12 -25 -19 -25 -8 0 -11 -8 -8 -20 3 -13 -1
-22 -12 -26 -9 -4 -20 -16 -24 -27 -8 -20 -9 -19 -26 9 -10 16 -35 53 -54 83
-41 60 -40 60 -98 153 -24 38 -43 72 -43 76 0 4 -14 20 -30 36 -17 16 -30 33
-30 38 0 4 -7 8 -16 8 -10 0 -14 5 -10 15 3 8 -3 30 -14 48 -11 17 -24 41 -30
52 -5 11 -30 52 -55 90 -25 39 -49 79 -54 90 -5 12 -16 27 -25 34 -9 7 -16 22
-16 32 0 10 -5 21 -11 25 -15 9 -4 45 41 139 21 44 46 98 55 120 10 22 28 65
42 95 31 67 29 64 99 230 31 74 58 138 61 143 8 13 19 7 49 -25z m44 12 c0 -5
-7 -10 -15 -10 -8 0 -15 5 -15 10 0 6 7 10 15 10 8 0 15 -4 15 -10z m-180 -23
c0 -2 -11 -17 -25 -33 -14 -16 -25 -23 -25 -16 0 8 10 22 23 33 23 19 27 21
27 16z m-923 -23 c-3 -3 -12 -4 -19 -1 -8 3 -5 6 6 6 11 1 17 -2 13 -5z m1151
-16 c7 -7 12 -16 12 -20 0 -15 -15 -8 -28 12 -13 22 -3 27 16 8z m-4016 -19
c-13 -5 -28 -7 -32 -4 -5 3 -11 1 -14 -4 -8 -12 20 -22 40 -14 11 4 15 2 13
-6 -3 -7 -8 -12 -12 -12 -4 1 -18 1 -31 1 -18 0 -23 5 -21 23 1 12 3 23 4 25
0 1 18 2 39 1 33 0 35 -1 14 -10z m2944 -11 c16 -12 32 -26 35 -31 3 -5 10 -9
15 -9 24 -1 55 -20 90 -56 55 -55 104 -114 104 -123 0 -4 6 -12 13 -16 22 -15
66 -80 72 -109 4 -16 16 -53 27 -82 15 -37 20 -76 21 -140 0 -96 -7 -190 -17
-199 -3 -4 -6 -15 -6 -25 0 -10 -9 -35 -20 -55 -11 -21 -20 -43 -20 -50 0 -7
-4 -13 -10 -13 -5 0 -10 -5 -10 -10 0 -6 -9 -20 -20 -32 -11 -12 -20 -28 -20
-35 0 -7 -5 -13 -12 -13 -6 0 -8 -3 -5 -7 4 -3 2 -12 -4 -20 -6 -7 -9 -13 -5
-13 3 0 -6 -20 -19 -44 -14 -25 -25 -49 -25 -55 0 -6 -11 -27 -25 -47 -14 -21
-24 -43 -21 -50 3 -7 -4 -14 -15 -17 -11 -3 -19 -14 -19 -26 0 -12 -9 -30 -20
-41 -11 -11 -20 -27 -20 -35 0 -8 -4 -15 -10 -15 -5 0 -10 -5 -10 -10 0 -6 -5
-16 -10 -23 -6 -7 -16 -20 -23 -30 -11 -16 -20 -7 -87 85 -41 57 -78 105 -82
106 -4 2 -8 10 -8 17 0 7 -13 27 -30 45 -16 18 -30 34 -30 37 0 9 -48 74 -81
111 -19 20 -49 57 -68 82 -19 25 -72 81 -118 125 l-84 80 16 29 c8 15 15 35
15 42 0 8 4 14 9 14 5 0 13 10 17 23 4 12 9 24 13 27 10 8 27 38 86 153 30 59
71 131 90 159 19 27 35 56 35 63 0 7 7 16 15 19 9 3 22 21 30 40 8 19 20 40
27 48 7 7 22 29 32 48 10 19 30 50 43 68 21 28 29 32 72 32 35 0 57 -6 77 -22z
m87 -22 c4 -10 1 -13 -9 -9 -7 3 -14 9 -14 14 0 14 17 10 23 -5z m-1853 -76
c0 -5 -5 -10 -11 -10 -5 0 -7 5 -4 10 3 6 8 10 11 10 2 0 4 -4 4 -10z m1490
-40 c0 -5 -7 -10 -15 -10 -8 0 -15 5 -15 10 0 6 7 10 15 10 8 0 15 -4 15 -10z
m1006 -57 c-11 -11 -17 4 -9 23 7 18 8 18 11 1 2 -10 1 -21 -2 -24z m-4036 3
c0 -3 -4 -8 -10 -11 -5 -3 -10 -1 -10 4 0 6 5 11 10 11 6 0 10 -2 10 -4z
m4630 -56 c0 -5 -2 -10 -4 -10 -3 0 -8 5 -11 10 -3 6 -1 10 4 10 6 0 11 -4 11
-10z m-4650 -10 c0 -5 -4 -10 -10 -10 -5 0 -10 5 -10 10 0 6 5 10 10 10 6 0
10 -4 10 -10z m-50 -114 c0 -3 -4 -8 -10 -11 -5 -3 -10 -1 -10 4 0 6 5 11 10
11 6 0 10 -2 10 -4z m667 -52 c-3 -3 -12 -4 -19 -1 -8 3 -5 6 6 6 11 1 17 -2
13 -5z m-708 -30 c-5 -15 -13 -32 -17 -38 -11 -17 -32 -95 -46 -166 -8 -46
-18 -68 -32 -75 -46 -25 -101 -57 -125 -73 -14 -9 -51 -32 -82 -50 -32 -19
-57 -38 -57 -43 0 -5 -5 -9 -11 -9 -6 0 -26 -12 -45 -26 -19 -15 -34 -24 -34
-20 0 9 41 79 61 105 11 13 19 27 19 32 0 4 11 20 24 35 45 50 56 64 56 72 1
10 37 52 45 52 10 0 35 27 29 32 -2 3 10 15 28 28 18 13 49 42 68 66 19 23 40
43 47 43 6 1 22 14 35 30 30 39 51 41 37 5z m772 17 c-11 -7 -12 -15 -3 -38 6
-15 11 -41 11 -58 0 -89 5 -131 28 -240 13 -66 28 -140 33 -165 13 -61 32
-123 42 -134 4 -6 8 -19 8 -30 0 -12 14 -59 31 -106 47 -131 52 -158 34 -186
-9 -15 -25 -24 -40 -24 -14 0 -25 -4 -25 -10 0 -5 -9 -10 -19 -10 -10 0 -21
-6 -24 -13 -5 -15 -420 -227 -442 -227 -12 0 -32 22 -78 80 -7 8 -20 31 -29
50 -25 49 -77 141 -87 154 -5 6 -12 22 -16 36 -4 14 -22 59 -40 100 -58 133
-79 216 -78 313 1 116 6 133 44 146 25 8 29 14 24 31 -6 18 -3 20 17 15 16 -4
33 1 50 14 14 12 29 21 33 21 4 0 20 10 37 21 23 17 28 27 24 45 -7 26 11 33
31 13 14 -14 167 58 186 89 4 6 16 12 25 12 9 0 28 9 42 20 14 11 30 20 37 20
6 0 40 16 75 35 56 30 106 49 69 26z m3212 -36 c-3 -9 -8 -14 -10 -11 -3 3 -2
9 2 15 9 16 15 13 8 -4z m-1053 -35 c0 -5 -4 -10 -10 -10 -5 0 -10 5 -10 10 0
6 5 10 10 10 6 0 10 -4 10 -10z m2020 0 c0 -5 -4 -10 -10 -10 -5 0 -10 5 -10
10 0 6 5 10 10 10 6 0 10 -4 10 -10z m-1058 -75 c0 -5 -5 -11 -11 -13 -6 -2
-11 4 -11 13 0 9 5 15 11 13 6 -2 11 -8 11 -13z m-52 -25 c0 -5 -4 -10 -9 -10
-6 0 -13 5 -16 10 -3 6 1 10 9 10 9 0 16 -4 16 -10z m-2030 -53 c0 -18 -2 -19
-10 -7 -13 20 -13 43 0 35 6 -3 10 -16 10 -28z m-2113 -9 c-3 -8 -6 -5 -6 6
-1 11 2 17 5 13 3 -3 4 -12 1 -19z m445 -30 c-9 -9 -15 -9 -24 0 -9 9 -7 12
12 12 19 0 21 -3 12 -12z m3858 -1 c0 -8 11 -27 25 -43 14 -16 25 -33 25 -39
0 -5 17 -35 39 -66 62 -90 151 -251 151 -274 0 -8 6 -15 14 -15 7 0 14 -10 14
-22 1 -29 6 -50 13 -63 9 -14 30 -82 34 -108 6 -35 22 -94 29 -105 4 -6 9 -82
11 -168 5 -144 4 -159 -15 -189 -11 -17 -16 -35 -12 -39 4 -4 -1 -12 -10 -17
-10 -5 -38 -49 -64 -97 -26 -48 -56 -99 -66 -114 -10 -14 -18 -33 -18 -42 0
-9 -3 -16 -8 -16 -4 0 -16 -17 -27 -37 -10 -21 -29 -53 -42 -71 -13 -17 -22
-36 -19 -41 3 -5 -1 -15 -10 -22 -14 -11 -22 -7 -60 35 -24 27 -44 52 -44 56
0 4 -10 18 -21 31 -12 13 -29 35 -37 49 -9 14 -25 31 -34 38 -10 7 -18 18 -18
24 0 5 -17 31 -38 57 -21 25 -49 63 -62 85 -13 21 -64 91 -114 155 -127 161
-139 183 -121 207 8 10 15 27 15 37 0 9 4 17 8 17 5 0 18 19 31 43 31 60 57
105 68 119 10 13 27 43 108 193 21 39 44 79 52 90 7 11 13 27 13 36 0 9 11 33
25 53 14 21 23 42 20 47 -4 5 -2 9 3 9 5 0 15 12 22 28 8 15 24 41 35 57 12
17 33 54 46 83 23 50 39 66 39 39z m-1962 -38 c98 -15 533 -11 615 7 15 3 27
3 27 -1 0 -3 -16 -34 -35 -69 -19 -35 -35 -71 -35 -80 0 -9 -4 -16 -9 -16 -5
0 -13 -10 -16 -22 -4 -13 -33 -78 -66 -146 -32 -67 -59 -129 -59 -136 0 -7 -7
-19 -15 -26 -8 -7 -15 -19 -15 -28 0 -8 -11 -38 -24 -66 -13 -28 -29 -69 -36
-91 -7 -22 -16 -49 -20 -60 -13 -32 -30 -126 -36 -193 -5 -55 -4 -62 12 -63
17 -1 17 -2 2 -6 -22 -5 -23 4 6 -79 33 -99 85 -202 152 -305 18 -26 38 -61
45 -78 15 -33 24 -39 32 -18 3 6 6 2 6 -11 1 -30 8 -42 109 -197 98 -149 95
-145 145 -193 20 -20 37 -39 37 -43 0 -17 75 -89 92 -89 19 0 25 -16 7 -22
-12 -4 94 -118 110 -118 6 0 11 -6 11 -14 0 -7 11 -21 25 -30 14 -9 25 -23 25
-32 0 -8 8 -18 18 -22 9 -4 40 -32 67 -62 28 -30 56 -59 64 -64 7 -4 32 -26
55 -47 67 -62 113 -99 123 -99 5 0 22 -14 38 -30 19 -20 35 -28 47 -24 12 3
18 0 18 -10 0 -9 7 -16 15 -16 8 0 15 -4 15 -9 0 -8 108 -81 170 -115 19 -10
42 -24 50 -31 8 -7 46 -26 83 -44 40 -19 67 -37 64 -44 -2 -7 -10 -11 -18 -10
-40 4 -220 35 -259 44 -25 5 -56 12 -70 15 -14 3 -40 13 -59 21 -18 8 -47 16
-64 17 -17 1 -33 8 -35 14 -2 7 -13 10 -26 6 -16 -4 -25 0 -29 10 -8 20 -27
21 -27 1 0 -8 -5 -15 -11 -15 -6 0 -9 9 -6 20 3 11 1 20 -4 20 -5 0 -27 11
-48 25 -23 16 -45 23 -55 19 -9 -4 -16 -3 -14 2 3 9 -5 14 -23 14 -6 0 -9 -7
-5 -15 3 -8 1 -15 -4 -15 -6 0 -10 9 -10 19 0 11 -7 27 -16 35 -19 20 -16 21
85 40 40 8 78 19 84 25 6 6 21 11 33 11 13 0 26 4 29 10 7 12 -31 13 -260 10
-151 -2 -161 -1 -179 19 -11 12 -25 21 -32 21 -7 0 -28 14 -46 30 -18 17 -42
33 -53 36 -11 4 -36 20 -56 35 -42 33 -49 35 -49 13 0 -8 -5 -12 -11 -8 -7 4
-8 9 0 17 13 13 -60 85 -112 109 -20 10 -37 22 -37 26 0 5 -28 31 -62 58 -34
26 -74 59 -90 74 -16 14 -47 41 -69 60 -23 19 -48 43 -57 53 -9 9 -20 17 -25
17 -5 0 -23 15 -41 33 -17 17 -48 43 -69 57 -62 42 -50 49 86 46 169 -4 380
20 415 47 28 22 9 28 -70 23 -188 -13 -260 -17 -387 -18 l-133 -1 -42 53 c-22
30 -53 67 -68 83 -16 15 -28 31 -28 33 0 9 -122 159 -136 167 -8 4 -14 13 -14
19 0 6 -15 28 -32 49 -52 61 -81 100 -101 137 -10 19 -25 42 -33 50 -8 8 -24
32 -35 53 -10 21 -24 39 -30 39 -6 0 -8 3 -6 8 3 4 1 29 -3 56 -5 35 -2 73 11
130 16 74 68 239 87 276 4 8 17 42 27 75 11 33 25 66 32 73 7 7 15 28 19 47 3
20 10 38 15 41 11 6 52 84 44 84 -2 0 6 19 20 43 14 23 37 67 52 97 16 30 36
64 46 75 10 11 20 31 24 45 10 42 24 62 39 56 8 -3 45 -11 82 -17z m3032 -84
c0 -7 22 -37 49 -67 27 -29 55 -69 64 -88 8 -19 27 -48 42 -64 15 -17 33 -44
41 -60 7 -17 29 -49 48 -71 20 -22 46 -61 59 -87 12 -26 27 -48 33 -48 17 0
24 -50 24 -160 0 -69 4 -100 13 -103 9 -4 9 -8 -2 -15 -8 -6 -15 -18 -16 -29
-1 -10 -6 -28 -13 -39 -6 -12 -9 -24 -6 -27 8 -7 -30 -125 -62 -195 -13 -29
-24 -58 -24 -65 0 -7 -4 -17 -8 -22 -4 -6 -18 -37 -31 -70 -32 -84 -54 -126
-68 -132 -7 -3 -13 -13 -14 -22 0 -9 -8 -28 -17 -42 -9 -15 -28 -45 -41 -68
-14 -23 -29 -40 -34 -38 -5 1 -20 23 -34 47 -25 45 -81 143 -121 210 -11 19
-33 56 -48 83 -15 26 -30 47 -35 47 -4 0 -10 11 -13 25 -4 14 -14 33 -24 43
-9 10 -25 35 -35 56 -10 21 -27 40 -38 43 -11 3 -18 11 -15 18 3 8 -13 43 -35
79 -21 36 -39 75 -39 87 0 18 15 53 51 119 4 8 25 49 46 90 21 41 43 81 50 88
7 7 13 20 13 28 0 8 11 31 23 52 13 20 30 55 37 76 7 22 21 48 30 58 9 10 23
37 30 61 6 23 23 62 36 87 12 25 26 59 30 75 12 51 54 83 54 40z m-2402 -43
c3 -9 -2 -13 -14 -10 -9 1 -19 9 -22 16 -3 9 2 13 14 10 9 -1 19 -9 22 -16z
m-3363 -42 c3 -5 1 -10 -4 -10 -6 0 -11 5 -11 10 0 6 2 10 4 10 3 0 8 -4 11
-10z m545 -30 c0 -5 -5 -10 -11 -10 -5 0 -7 5 -4 10 3 6 8 10 11 10 2 0 4 -4
4 -10z m75 -74 c3 -22 19 -90 36 -151 17 -60 35 -128 41 -150 10 -42 15 -55
42 -117 9 -20 16 -41 16 -47 0 -11 30 -88 64 -166 8 -16 19 -47 25 -67 7 -20
19 -42 27 -48 22 -19 18 -23 -36 -49 -27 -13 -50 -29 -50 -36 0 -6 -10 -11
-22 -10 -13 1 -30 -2 -38 -6 -30 -17 -235 -99 -245 -99 -18 0 -95 -40 -95 -49
0 -4 -11 -6 -24 -4 -13 3 -34 -2 -47 -10 -29 -18 -117 -40 -129 -32 -5 3 -12
25 -16 50 -3 24 -12 49 -19 55 -7 6 -11 19 -8 30 3 11 0 34 -7 52 -25 70 -44
226 -44 354 0 113 3 136 19 160 11 16 18 32 17 37 -1 4 2 7 8 7 5 0 23 14 40
30 17 17 34 30 38 30 4 0 13 14 20 30 8 17 21 30 30 30 9 0 34 18 57 40 22 21
94 80 160 130 133 100 129 100 140 6z m-202 49 c1 -5 -11 -12 -27 -13 -27 -3
-28 -2 -16 13 14 17 40 17 43 0z m3120 -6 c23 -12 57 -35 75 -50 18 -16 37
-29 43 -29 5 0 20 -11 33 -25 13 -14 28 -25 35 -25 6 0 11 -8 11 -17 0 -21 84
-116 94 -106 3 3 6 2 6 -4 0 -6 16 -30 35 -54 19 -24 35 -51 35 -59 0 -9 7
-26 16 -38 8 -12 13 -22 10 -22 -3 0 2 -19 10 -42 10 -26 16 -80 16 -138 1
-86 -2 -100 -26 -145 -15 -27 -33 -57 -40 -65 -7 -8 -21 -33 -31 -54 -11 -22
-30 -50 -42 -64 -13 -14 -23 -30 -23 -37 0 -6 -9 -23 -20 -36 -11 -13 -36 -44
-56 -69 -68 -87 -89 -112 -121 -142 -18 -17 -33 -36 -33 -41 0 -14 -63 -82
-73 -79 -5 2 -7 -5 -3 -14 5 -12 2 -15 -11 -10 -9 4 -20 1 -24 -5 -7 -12 -31
20 -121 162 -21 33 -38 61 -38 64 -1 10 -13 42 -35 95 -13 30 -27 67 -30 83
-4 15 -11 30 -16 33 -5 3 -9 29 -9 58 0 28 -4 56 -9 61 -9 10 -7 29 23 190 34
191 85 362 123 420 7 11 13 28 13 38 0 10 15 52 34 93 45 97 74 111 149 73z
m-3263 -79 c0 -5 -2 -10 -4 -10 -3 0 -8 5 -11 10 -3 6 -1 10 4 10 6 0 11 -4
11 -10z m-296 -15 c-4 -8 -8 -15 -10 -15 -2 0 -4 7 -4 15 0 8 4 15 10 15 5 0
7 -7 4 -15z m2206 -15 c0 -5 -9 -14 -20 -20 -15 -8 -20 -8 -20 3 0 8 3 17 7
20 10 10 33 8 33 -3z m1595 -70 c3 -5 1 -10 -4 -10 -6 0 -11 5 -11 10 0 6 2
10 4 10 3 0 8 -4 11 -10z m-1575 -95 c0 -8 -7 -15 -15 -15 -9 0 -12 6 -9 15 4
8 10 15 15 15 5 0 9 -7 9 -15z m53 -56 c-6 -6 -17 -8 -24 -3 -9 5 -8 9 7 14
23 9 31 3 17 -11z m977 3 c0 -13 -12 -22 -22 -16 -10 6 -1 24 13 24 5 0 9 -4
9 -8z m988 -49 c-2 -9 -8 -18 -15 -20 -7 -3 -9 3 -6 16 6 25 26 28 21 4z
m-2137 -46 c-13 -13 -26 -3 -16 12 3 6 11 8 17 5 6 -4 6 -10 -1 -17z m4129 19
c0 -11 -19 -15 -25 -6 -3 5 1 10 9 10 9 0 16 -2 16 -4z m-6350 -51 c0 -8 -7
-15 -15 -15 -8 0 -15 7 -15 15 0 8 7 15 15 15 8 0 15 -7 15 -15z m2200 -5 c0
-5 -8 -10 -17 -10 -15 0 -16 -2 -3 -9 8 -6 19 -7 25 -3 5 3 4 -2 -4 -11 -11
-14 -11 -18 2 -23 8 -3 21 -20 28 -37 7 -18 18 -35 23 -39 7 -5 4 -8 -6 -8
-11 0 -19 -15 -27 -47 -16 -70 -18 -148 -4 -148 6 0 15 -3 19 -7 4 -5 -2 -8
-13 -8 -19 0 -20 -5 -16 -47 3 -27 12 -63 19 -82 8 -18 12 -37 9 -41 -3 -5 4
-15 16 -24 12 -8 18 -19 15 -24 -9 -15 4 -43 17 -35 6 3 7 1 3 -6 -8 -12 23
-62 61 -98 24 -23 30 -57 13 -68 -5 -3 -10 -18 -10 -32 l0 -26 -23 22 c-13 12
-30 34 -38 49 -8 15 -30 54 -50 87 -20 33 -40 71 -44 85 -4 14 -14 33 -23 43
-8 9 -12 17 -7 17 4 0 1 7 -6 16 -21 26 -37 55 -68 124 -6 14 -15 32 -20 40
-26 45 -41 80 -41 93 0 9 -5 17 -11 19 -12 4 -49 93 -49 118 0 8 14 21 30 28
17 8 30 20 30 28 0 8 9 14 20 14 11 0 27 11 36 25 9 14 19 23 23 20 4 -2 21 0
37 5 40 12 54 12 54 0z m-2200 -41 c0 -5 -4 -9 -10 -9 -5 0 -10 7 -10 16 0 8
5 12 10 9 6 -3 10 -10 10 -16z m5441 -12 c-10 -9 -11 -8 -5 6 3 10 9 15 12 12
3 -3 0 -11 -7 -18z m-114 -39 c-3 -8 -6 -5 -6 6 -1 11 2 17 5 13 3 -3 4 -12 1
-19z m1128 3 c3 -5 1 -12 -5 -16 -5 -3 -10 1 -10 9 0 18 6 21 15 7z m-4572
-45 c12 -29 23 -43 32 -40 7 3 16 1 20 -5 3 -6 -1 -11 -9 -11 -9 0 -16 -4 -16
-9 0 -24 131 -303 155 -331 8 -8 18 -26 24 -40 6 -14 15 -32 19 -40 5 -8 13
-24 19 -35 20 -42 48 -91 61 -107 8 -9 12 -25 10 -35 -3 -16 -7 -14 -28 10
-14 16 -39 54 -55 85 -17 31 -59 100 -93 152 -34 52 -62 102 -62 111 0 9 -9
24 -20 34 -11 10 -20 24 -20 30 0 17 -39 65 -52 65 -7 0 -5 -7 3 -17 8 -10 21
-31 29 -48 8 -16 30 -56 48 -88 18 -31 30 -62 27 -67 -3 -6 -2 -10 3 -10 5 0
15 -15 22 -32 41 -109 69 -172 83 -189 9 -10 14 -28 12 -39 -2 -12 2 -23 9
-26 8 -3 13 -15 13 -27 -1 -12 2 -46 6 -74 5 -36 4 -53 -3 -53 -9 0 -65 -35
-80 -50 -3 -3 -22 -13 -42 -22 -26 -12 -38 -24 -38 -38 0 -11 -4 -20 -10 -20
-5 0 -10 7 -10 15 0 12 -4 13 -27 2 -16 -6 -30 -15 -33 -19 -7 -9 -136 -68
-149 -68 -6 0 -11 -3 -11 -7 0 -10 -65 -54 -102 -70 -25 -11 -30 -10 -35 5 -4
9 -19 33 -34 52 -16 19 -40 58 -55 85 -14 28 -45 84 -67 125 -22 41 -54 102
-72 135 -17 33 -44 82 -58 108 -15 26 -27 53 -27 59 0 6 -7 19 -16 29 -9 10
-27 41 -40 70 -24 50 -24 51 -4 56 11 3 20 11 20 18 0 8 8 11 19 8 12 -3 20 2
24 16 3 13 -1 21 -12 24 -9 3 -3 5 13 6 21 1 27 -3 22 -14 -3 -9 0 -15 9 -15
14 0 20 13 16 34 -1 5 6 5 16 2 15 -6 33 0 113 39 14 6 24 17 23 23 -2 6 4 9
11 6 24 -9 184 76 210 112 8 10 17 16 21 12 10 -10 65 12 65 27 0 17 -58 25
-92 13 -39 -14 -58 -4 -26 13 46 24 121 66 158 87 19 11 37 21 40 21 3 1 13
-19 23 -43z m2277 19 c0 -9 -6 -12 -15 -9 -8 4 -12 10 -9 15 8 14 24 10 24 -6z
m46 -50 c-11 -11 -23 -14 -34 -9 -15 6 -15 8 3 12 11 2 24 8 29 13 17 16 19 0
2 -16z m-2676 1 c0 -3 -4 -8 -10 -11 -5 -3 -10 -1 -10 4 0 6 5 11 10 11 6 0
10 -2 10 -4z m4830 -12 c0 -8 -5 -12 -10 -9 -6 4 -8 11 -5 16 9 14 15 11 15
-7z m-4010 -18 c0 -3 -4 -8 -10 -11 -5 -3 -10 -1 -10 4 0 6 5 11 10 11 6 0 10
-2 10 -4z m-691 -45 c9 -6 10 -11 2 -15 -13 -8 -31 1 -31 15 0 11 11 11 29 0z
m2669 -42 c18 -27 37 -47 41 -44 5 2 12 -6 15 -20 3 -13 34 -62 69 -108 34
-46 73 -105 87 -130 13 -26 28 -47 32 -47 5 0 8 -9 8 -21 0 -11 5 -30 12 -42
7 -12 14 -33 16 -46 2 -13 10 -38 19 -55 9 -17 20 -47 24 -66 4 -19 13 -55 19
-80 18 -67 5 -245 -20 -286 -11 -17 -20 -39 -20 -48 0 -9 -7 -16 -15 -16 -8 0
-15 -8 -15 -19 0 -10 -7 -24 -15 -31 -8 -7 -15 -19 -15 -26 0 -8 7 -14 15 -14
8 0 15 5 15 10 0 6 9 10 20 10 11 0 20 -4 20 -10 0 -18 -41 -31 -73 -24 -18 3
-29 3 -25 -1 5 -5 -1 -14 -12 -22 -11 -8 -20 -18 -20 -23 0 -5 -16 -25 -35
-46 -19 -20 -35 -44 -35 -52 0 -18 -28 -52 -44 -53 -6 0 -29 -22 -51 -49 -22
-27 -45 -49 -52 -49 -7 -1 -30 16 -51 37 -21 20 -64 59 -95 87 -32 27 -57 55
-57 62 0 7 -3 13 -8 13 -7 0 -216 204 -278 271 -17 19 -39 48 -49 64 -11 17
-34 47 -52 68 -18 20 -33 41 -33 46 0 5 29 36 63 68 58 53 227 253 227 268 0
4 18 27 40 52 22 25 40 50 40 55 0 13 93 148 102 148 4 0 8 6 8 13 0 18 126
207 138 207 4 0 22 -23 40 -51z m2082 31 c0 -5 -4 -10 -10 -10 -5 0 -10 5 -10
10 0 6 5 10 10 10 6 0 10 -4 10 -10z m-5100 -24 c0 -11 -19 -15 -25 -6 -3 5 1
10 9 10 9 0 16 -2 16 -4z m4157 -13 c7 -10 25 -38 38 -63 33 -60 45 -78 76
-120 15 -19 29 -45 33 -57 4 -13 12 -23 17 -23 5 0 9 -6 9 -12 0 -7 14 -31 30
-52 17 -22 30 -43 30 -48 0 -5 12 -27 27 -51 66 -105 104 -167 149 -246 18
-33 19 -39 6 -70 -8 -19 -25 -51 -38 -70 -13 -20 -24 -44 -24 -54 0 -10 -13
-35 -29 -55 -16 -20 -37 -52 -47 -71 -11 -18 -30 -46 -44 -61 -14 -15 -41 -49
-60 -76 -19 -26 -45 -59 -58 -73 -13 -14 -35 -41 -50 -60 -15 -19 -46 -55 -68
-80 l-42 -45 -17 35 c-10 19 -30 52 -45 74 -15 22 -47 69 -70 105 -24 36 -47
67 -52 68 -4 2 -8 10 -8 18 0 8 -3 14 -7 14 -5 0 -21 21 -37 48 -16 26 -40 59
-54 74 -13 15 -30 35 -36 45 -6 11 -20 34 -31 52 -11 19 -30 46 -42 61 -28 34
-23 52 41 149 26 40 49 78 50 85 1 6 15 31 31 56 50 77 125 220 125 237 0 6 9
20 20 33 11 13 20 28 20 35 0 7 9 20 20 30 11 10 20 23 20 29 0 6 11 28 25 49
14 20 24 41 21 46 -3 5 1 12 10 15 8 3 13 10 9 15 -3 6 3 14 12 20 24 14 24
14 40 -6z m-4037 -63 c0 -5 -5 -10 -11 -10 -5 0 -7 5 -4 10 3 6 8 10 11 10 2
0 4 -4 4 -10z m-1310 -16 c0 -8 -5 -12 -10 -9 -6 4 -8 11 -5 16 9 14 15 11 15
-7z m6183 -81 c-7 -2 -13 -12 -13 -20 0 -9 -3 -14 -6 -10 -10 10 4 37 18 36
10 0 10 -2 1 -6z m-6053 -13 c0 -5 -7 -10 -15 -10 -8 0 -15 5 -15 10 0 6 7 10
15 10 8 0 15 -4 15 -10z m852 -67 c6 -16 12 -33 14 -40 1 -7 12 -26 23 -42 12
-16 21 -33 21 -39 0 -5 18 -42 40 -83 22 -40 43 -83 46 -96 4 -13 10 -23 15
-23 5 0 9 -7 9 -15 0 -8 16 -43 35 -78 19 -35 35 -70 35 -78 0 -8 13 -30 29
-49 15 -19 32 -50 35 -67 4 -18 11 -33 16 -33 4 0 10 -8 14 -17 9 -28 44 -86
57 -93 13 -9 -10 -52 -26 -47 -11 4 -174 -58 -242 -92 -23 -12 -48 -21 -56
-21 -7 0 -42 -11 -78 -25 -128 -51 -235 -53 -329 -7 -75 37 -115 69 -125 103
-4 13 -13 31 -20 39 -7 8 -16 25 -19 38 -4 12 -12 22 -17 22 -5 0 -9 5 -9 12
0 17 -50 116 -66 129 -8 6 -14 15 -14 20 0 13 -52 123 -61 129 -4 3 -7 20 -7
38 1 18 -4 38 -10 44 -33 33 -10 51 118 90 19 5 41 15 49 21 7 7 19 12 25 12
6 1 18 4 26 7 8 4 41 14 74 23 78 22 65 31 -16 11 -165 -41 -304 -61 -218 -32
19 7 46 17 60 23 14 6 43 16 65 23 22 6 54 18 70 25 17 7 66 28 110 45 44 17
111 47 149 66 38 19 74 34 80 34 6 0 27 11 46 25 19 13 36 24 38 25 1 0 8 -12
14 -27z m-955 1 c-3 -3 -12 -4 -19 -1 -8 3 -5 6 6 6 11 1 17 -2 13 -5z m6073
-34 c0 -5 -4 -10 -10 -10 -5 0 -10 5 -10 10 0 6 5 10 10 10 6 0 10 -4 10 -10z
m-2280 -14 c0 -3 -4 -8 -10 -11 -5 -3 -10 -1 -10 4 0 6 5 11 10 11 6 0 10 -2
10 -4z m-50 -66 c0 -5 -4 -10 -10 -10 -5 0 -10 5 -10 10 0 6 5 10 10 10 6 0
10 -4 10 -10z m-50 -70 c0 -5 -5 -10 -11 -10 -5 0 -7 5 -4 10 3 6 8 10 11 10
2 0 4 -4 4 -10z m1267 -16 c-3 -3 -12 -4 -19 -1 -8 3 -5 6 6 6 11 1 17 -2 13
-5z m-4817 -135 c0 -5 -4 -9 -10 -9 -5 0 -10 7 -10 16 0 8 5 12 10 9 6 -3 10
-10 10 -16z m4697 -11 c-3 -8 -6 -5 -6 6 -1 11 2 17 5 13 3 -3 4 -12 1 -19z
m-1307 -7 c0 -6 -4 -13 -10 -16 -5 -3 -10 1 -10 9 0 9 5 16 10 16 6 0 10 -4
10 -9z m-30 -62 c0 -6 -4 -7 -10 -4 -5 3 -10 11 -10 16 0 6 5 7 10 4 6 -3 10
-11 10 -16z m-24 -27 c-9 -8 -26 10 -26 26 1 15 2 15 15 -2 8 -11 13 -21 11
-24z m-1128 -30 c23 -19 42 -40 42 -48 0 -7 9 -16 20 -19 11 -3 20 -13 20 -21
0 -8 6 -17 14 -20 8 -3 17 -17 21 -31 3 -13 17 -37 31 -51 13 -15 27 -37 30
-49 4 -13 10 -23 16 -23 5 0 16 -16 23 -35 8 -19 28 -56 45 -82 16 -26 30 -61
30 -78 0 -16 4 -45 9 -62 8 -29 8 -31 -7 -21 -22 14 -91 109 -128 175 -16 29
-32 53 -36 53 -4 0 -23 31 -42 68 -19 38 -41 74 -50 81 -9 8 -16 17 -16 22 0
5 -15 31 -32 57 -48 69 -66 105 -61 120 5 14 13 10 71 -36z m-104 -96 c25 -38
46 -71 46 -73 0 -11 101 -171 114 -182 8 -7 25 -31 37 -54 12 -23 27 -51 33
-63 6 -11 37 -47 69 -80 53 -55 70 -84 48 -84 -5 0 -12 -9 -16 -19 -3 -11 -14
-21 -23 -23 -11 -2 -17 -13 -17 -33 0 -27 -3 -30 -28 -28 -29 2 -76 -37 -77
-64 0 -7 -6 -13 -13 -13 -15 0 -110 -60 -115 -72 -2 -5 -8 -6 -12 -3 -5 3 -17
-3 -27 -13 -24 -25 -108 -72 -127 -72 -9 0 -16 -4 -16 -8 0 -5 -18 -18 -39
-30 l-40 -23 -85 108 c-47 59 -110 134 -138 167 -29 32 -57 65 -62 75 -5 9
-30 41 -55 71 -62 73 -161 205 -161 213 0 4 28 21 63 38 34 17 83 42 109 55
26 13 76 42 113 64 36 22 68 40 71 40 2 0 17 8 32 19 15 10 54 35 87 56 33 21
78 51 100 65 42 28 65 40 76 37 4 -1 28 -33 53 -71z m2373 22 c-3 -8 -6 -5 -6
6 -1 11 2 17 5 13 3 -3 4 -12 1 -19z m207 -81 c11 -13 28 -36 35 -53 8 -16 31
-49 51 -74 20 -25 70 -94 111 -154 41 -60 90 -132 111 -160 20 -28 48 -71 62
-95 31 -52 42 -31 -100 -182 -75 -79 -246 -234 -268 -242 -12 -5 -39 4 -80 27
-33 19 -97 53 -141 76 -44 24 -91 49 -104 56 -13 7 -27 16 -30 21 -9 12 -60
46 -110 74 -42 23 -91 63 -91 75 0 4 49 58 108 123 117 126 197 224 254 312
21 31 53 75 73 98 19 24 35 47 35 51 0 10 49 70 57 70 3 0 15 -10 27 -23z
m-4394 -147 c0 -5 -4 -10 -10 -10 -5 0 -10 5 -10 10 0 6 5 10 10 10 6 0 10 -4
10 -10z m4002 -142 c-7 -7 -12 -8 -12 -2 0 6 3 14 7 17 3 4 9 5 12 2 2 -3 -1
-11 -7 -17z m-1662 -8 c0 -5 -4 -10 -10 -10 -5 0 -10 5 -10 10 0 6 5 10 10 10
6 0 10 -4 10 -10z m-1360 -23 c0 -7 -9 -13 -20 -13 -25 0 -26 13 -2 19 9 3 18
5 20 6 1 0 2 -5 2 -12z m1760 -27 c0 -5 -7 -10 -15 -10 -8 0 -15 5 -15 10 0 6
7 10 15 10 8 0 15 -4 15 -10z m1180 -30 c0 -5 -4 -10 -10 -10 -5 0 -10 5 -10
10 0 6 5 10 10 10 6 0 10 -4 10 -10z m-3550 -26 c0 -8 -4 -14 -10 -14 -5 0
-10 9 -10 21 0 11 5 17 10 14 6 -3 10 -13 10 -21z m630 -10 c49 -44 135 -134
169 -179 17 -22 35 -45 41 -52 5 -7 10 -16 10 -22 0 -5 14 -21 30 -34 17 -14
30 -32 30 -41 0 -8 9 -18 20 -21 11 -3 20 -11 20 -17 0 -5 6 -24 14 -41 8 -18
17 -39 20 -47 4 -8 13 -26 21 -40 22 -37 19 -71 -6 -77 -12 -3 -18 -11 -15
-19 3 -8 1 -14 -3 -14 -5 0 -11 5 -13 11 -3 9 -22 6 -63 -8 -33 -11 -84 -26
-112 -33 -29 -6 -53 -16 -53 -21 0 -5 -11 -9 -25 -9 -13 0 -33 -9 -43 -20 -13
-14 -25 -18 -38 -13 -19 6 -94 53 -104 63 -16 18 -90 70 -120 85 -19 10 -51
31 -70 46 -19 16 -38 29 -42 29 -7 0 -77 49 -115 80 -7 6 -16 10 -20 10 -5 0
-17 11 -27 25 -10 14 -25 25 -32 25 -7 0 -35 21 -61 46 -109 105 -133 129
-133 134 0 3 21 12 48 19 177 51 314 97 382 128 72 33 122 43 196 39 51 -3 67
-8 94 -32z m1257 14 c-3 -8 -6 -5 -6 6 -1 11 2 17 5 13 3 -3 4 -12 1 -19z
m638 -98 c3 -5 2 -10 -4 -10 -5 0 -13 5 -16 10 -3 6 -2 10 4 10 5 0 13 -4 16
-10z m-1695 -50 c0 -5 -2 -10 -4 -10 -3 0 -8 5 -11 10 -3 6 -1 10 4 10 6 0 11
-4 11 -10z m2568 -11 c-2 -6 -8 -10 -13 -10 -5 0 -11 4 -13 10 -2 6 4 11 13
11 9 0 15 -5 13 -11z m-868 -49 c0 -5 -2 -10 -4 -10 -3 0 -8 5 -11 10 -3 6 -1
10 4 10 6 0 11 -4 11 -10z m100 -50 c0 -5 -2 -10 -4 -10 -3 0 -8 5 -11 10 -3
6 -1 10 4 10 6 0 11 -4 11 -10z m337 -256 c-3 -3 -12 -4 -19 -1 -8 3 -5 6 6 6
11 1 17 -2 13 -5z m428 -24 c-3 -5 -10 -10 -16 -10 -5 0 -9 5 -9 10 0 6 7 10
16 10 8 0 12 -4 9 -10z m-83 -55 c0 -5 -5 -11 -11 -13 -6 -2 -11 4 -11 13 0 9
5 15 11 13 6 -2 11 -8 11 -13z m218 -26 c0 -5 -7 -9 -15 -9 -15 0 -20 12 -9
23 8 8 24 -1 24 -14z m485 -119 c-3 -5 -10 -10 -16 -10 -5 0 -9 5 -9 10 0 6 7
10 16 10 8 0 12 -4 9 -10z m-3191 -72 c-16 -74 -25 -248 -12 -248 7 0 7 -4 0
-13 -6 -7 -20 -75 -30 -152 -11 -77 -24 -151 -30 -165 -5 -14 -12 -50 -16 -80
-4 -30 -15 -82 -26 -115 -37 -121 -70 -241 -75 -275 -2 -15 -50 -127 -60 -140
-6 -8 -17 -28 -25 -45 -8 -16 -31 -46 -51 -65 -34 -33 -54 -66 -51 -82 1 -5
-7 -8 -18 -8 -15 0 -20 -7 -20 -26 0 -14 -4 -23 -10 -19 -11 6 -60 -42 -87
-85 -8 -14 -35 -41 -59 -60 -23 -19 -43 -41 -43 -48 -1 -7 -8 -15 -16 -18 -8
-3 -28 -27 -44 -52 -17 -26 -46 -64 -66 -85 -19 -21 -34 -41 -34 -45 3 -20 -3
-32 -16 -32 -8 0 -15 -9 -15 -19 0 -11 -4 -21 -9 -23 -12 -5 -111 -209 -111
-230 0 -10 -14 -59 -30 -109 -17 -50 -31 -105 -31 -122 0 -18 -2 -61 -4 -97
l-3 -65 -39 3 c-38 3 -209 52 -269 77 -18 8 -48 17 -68 20 -20 4 -39 11 -42
16 -3 5 -10 7 -15 3 -5 -3 -18 5 -28 17 -16 19 -20 49 -26 169 -4 80 -11 153
-16 163 -7 13 -6 17 6 17 9 0 15 6 14 13 -8 42 64 309 102 377 5 8 20 40 33
70 40 89 99 191 149 259 26 35 47 67 47 71 0 4 15 23 33 42 39 41 71 79 116
138 19 25 56 68 84 95 195 198 297 304 297 307 0 3 25 31 56 64 50 53 198 235
233 288 62 91 90 139 85 147 -3 5 -1 9 4 9 12 0 51 99 54 138 2 32 2 32 58 33
30 0 64 4 75 9 11 5 28 9 38 9 16 1 17 -4 11 -31z m192 -194 c-3 -9 -6 -21 -6
-27 0 -8 -3 -8 -11 0 -13 13 -5 43 12 43 6 0 8 -7 5 -16z m50 -89 c4 -27 8
-55 9 -62 0 -6 4 -15 8 -19 4 -4 7 -20 7 -36 0 -23 4 -28 24 -28 14 0 27 -4
30 -9 6 -10 -17 -33 -30 -30 -20 3 -23 -2 -15 -23 8 -21 32 -177 46 -298 3
-25 10 -72 15 -105 5 -33 14 -89 20 -125 5 -36 18 -101 29 -145 10 -44 22
-100 26 -125 4 -25 12 -51 17 -57 6 -7 8 -13 5 -13 -3 0 -1 -15 4 -32 5 -18
12 -46 14 -63 7 -39 36 -126 48 -143 6 -7 7 -15 5 -18 -3 -3 9 -47 27 -97 52
-142 58 -157 73 -157 12 0 12 -3 1 -16 -10 -12 -10 -17 0 -23 7 -5 12 -11 11
-15 -2 -15 31 -111 44 -125 8 -9 21 -38 31 -66 36 -109 73 -176 173 -310 4 -6
22 -28 40 -49 32 -37 33 -39 14 -52 -23 -16 -157 -27 -180 -14 -24 13 -209 43
-221 36 -5 -4 -12 -2 -15 3 -7 10 -25 9 -44 -2 -7 -5 -22 -5 -34 -1 -22 7
-138 -25 -138 -38 0 -5 -8 -8 -19 -8 -10 0 -24 -6 -31 -14 -6 -8 -43 -27 -81
-42 -87 -34 -98 -27 -103 67 -2 35 -8 89 -14 119 -12 63 -32 181 -38 224 -2
17 -9 33 -15 37 -6 4 -7 9 -2 12 5 3 8 21 6 39 -7 63 -3 217 11 493 1 17 4 35
7 40 3 6 5 30 5 55 -1 25 2 47 6 50 8 6 19 65 22 115 1 17 10 64 19 105 48
206 59 256 60 273 1 9 5 17 10 17 5 0 7 10 4 23 -5 21 -2 41 24 157 6 25 12
74 13 110 1 37 6 71 10 78 4 6 9 53 12 104 3 51 10 109 15 128 6 23 5 36 -2
41 -8 5 -8 9 0 14 7 4 11 14 10 23 -1 10 -1 31 0 47 2 41 16 15 27 -50z m3004
-75 c0 -5 -4 -10 -9 -10 -6 0 -13 5 -16 10 -3 6 1 10 9 10 9 0 16 -4 16 -10z
m19 -120 c7 -41 17 -99 22 -128 6 -29 13 -71 15 -95 6 -53 10 -81 24 -137 5
-25 15 -70 20 -100 5 -30 15 -71 21 -90 6 -19 13 -55 16 -79 2 -24 11 -54 18
-65 8 -12 21 -47 29 -78 8 -31 19 -66 25 -77 6 -11 11 -29 11 -40 0 -11 10
-27 23 -36 13 -10 17 -19 11 -22 -13 -4 -7 -43 6 -43 4 0 14 -24 20 -52 7 -29
18 -60 26 -68 7 -8 13 -18 13 -22 1 -9 26 -69 49 -115 8 -18 19 -33 24 -33 4
0 8 -5 8 -11 0 -23 64 -155 81 -167 11 -7 19 -19 19 -27 0 -7 6 -20 13 -27 7
-7 22 -27 32 -45 24 -37 105 -145 143 -189 15 -17 50 -57 77 -90 28 -32 59
-66 70 -76 11 -10 38 -35 59 -54 l39 -37 -29 -15 c-16 -8 -43 -26 -60 -39 -17
-12 -37 -23 -45 -23 -13 0 -62 -29 -143 -82 -10 -7 -42 -34 -70 -59 -28 -26
-69 -63 -91 -83 -45 -40 -80 -46 -116 -18 -13 10 -32 21 -41 25 -10 3 -18 11
-18 16 0 5 -8 12 -18 15 -11 4 -25 17 -32 31 -10 19 -16 22 -27 14 -10 -9 -13
-6 -13 12 0 14 -16 39 -35 59 -19 19 -35 38 -35 44 0 5 -10 23 -23 40 -27 35
-98 181 -118 241 -7 22 -18 45 -24 50 -6 6 -11 21 -11 35 -1 14 -8 58 -17 97
-9 40 -19 87 -22 105 -4 18 -13 41 -22 50 -15 17 -15 18 2 18 15 0 16 5 10 33
-4 17 -9 48 -11 67 -2 19 -6 55 -9 80 -2 25 -8 77 -13 115 -5 39 -6 72 -2 75
4 3 4 28 1 55 -4 28 -5 122 -3 210 3 88 5 185 5 215 1 30 4 57 8 60 4 3 9 32
12 65 3 33 8 72 12 87 6 23 4 26 -14 21 -15 -4 -21 -1 -21 12 0 12 6 16 19 12
15 -3 20 2 25 25 9 47 7 58 -11 58 -10 0 -27 7 -37 15 -23 17 -21 18 20 6 l31
-9 12 62 c16 87 27 181 30 281 2 48 17 11 30 -75z m-39 49 c0 -5 -4 -9 -10 -9
-5 0 -10 7 -10 16 0 8 5 12 10 9 6 -3 10 -10 10 -16z m-560 -9 c0 -5 -5 -10
-11 -10 -5 0 -7 5 -4 10 3 6 8 10 11 10 2 0 4 -4 4 -10z m-2545 -200 c3 -5 1
-10 -4 -10 -6 0 -11 5 -11 10 0 6 2 10 4 10 3 0 8 -4 11 -10z m2952 -152 c-3
-8 -6 -5 -6 6 -1 11 2 17 5 13 3 -3 4 -12 1 -19z m293 2 c0 -5 -4 -10 -10 -10
-5 0 -10 5 -10 10 0 6 5 10 10 10 6 0 10 -4 10 -10z m-265 -120 c-3 -5 -10
-10 -16 -10 -5 0 -9 5 -9 10 0 6 7 10 16 10 8 0 12 -4 9 -10z m39 -5 c-4 -8
-10 -15 -15 -15 -5 0 -9 7 -9 15 0 8 7 15 15 15 9 0 12 -6 9 -15z m-4 -46 c0
-5 -4 -8 -9 -4 -5 3 -12 1 -16 -5 -3 -5 -11 -10 -16 -10 -14 0 14 29 29 30 6
0 12 -5 12 -11z m-100 -139 c0 -5 -4 -10 -10 -10 -5 0 -10 5 -10 10 0 6 5 10
10 10 6 0 10 -4 10 -10z m50 -74 c0 -3 -4 -8 -10 -11 -5 -3 -10 -1 -10 4 0 6
5 11 10 11 6 0 10 -2 10 -4z m-4270 -86 c0 -5 -7 -10 -15 -10 -8 0 -15 5 -15
10 0 6 7 10 15 10 8 0 15 -4 15 -10z m3930 -104 c0 -3 -4 -8 -10 -11 -5 -3
-10 -1 -10 4 0 6 5 11 10 11 6 0 10 -2 10 -4z m-4040 -55 c0 -17 -18 -21 -24
-6 -3 9 0 15 9 15 8 0 15 -4 15 -9z m4280 -47 c0 -2 -7 -4 -15 -4 -8 0 -15 4
-15 10 0 5 7 7 15 4 8 -4 15 -8 15 -10z m30 2 c0 -8 -4 -18 -10 -21 -5 -3 -10
3 -10 14 0 12 5 21 10 21 6 0 10 -6 10 -14z m-3043 -58 c-3 -8 -6 -5 -6 6 -1
11 2 17 5 13 3 -3 4 -12 1 -19z m3058 -7 c-3 -6 -11 -11 -17 -11 -6 0 -6 6 2
15 14 17 26 13 15 -4z m59 3 c18 -7 12 -24 -10 -24 -8 0 -14 7 -14 15 0 17 2
18 24 9z m-3527 -26 c-3 -8 -6 -5 -6 6 -1 11 2 17 5 13 3 -3 4 -12 1 -19z
m3490 -50 c-3 -8 -6 -5 -6 6 -1 11 2 17 5 13 3 -3 4 -12 1 -19z m37 -17 c3 -5
-1 -11 -9 -15 -9 -3 -15 0 -15 9 0 16 16 20 24 6z m-720 -62 c-9 -15 -34 -10
-28 5 3 8 12 12 20 9 8 -3 11 -9 8 -14z m751 -29 c3 -5 -1 -10 -10 -10 -9 0
-13 5 -10 10 3 6 8 10 10 10 2 0 7 -4 10 -10z m-3755 -20 c0 -5 -4 -10 -10
-10 -5 0 -10 5 -10 10 0 6 5 10 10 10 6 0 10 -4 10 -10z m3705 -10 c-3 -5 -10
-10 -16 -10 -5 0 -9 5 -9 10 0 6 7 10 16 10 8 0 12 -4 9 -10z m-795 -45 c0 -8
-7 -15 -15 -15 -16 0 -20 12 -8 23 11 12 23 8 23 -8z m830 -41 c0 -8 -4 -14
-10 -14 -5 0 -10 9 -10 21 0 11 5 17 10 14 6 -3 10 -13 10 -21z m-3771 -114
c-22 -14 -34 2 -13 17 13 10 20 10 23 2 2 -6 -3 -15 -10 -19z m2869 -20 c-7
-10 -14 -17 -17 -15 -4 4 18 35 25 35 2 0 -1 -9 -8 -20z m-2988 -240 c0 -5 -4
-10 -10 -10 -5 0 -10 5 -10 10 0 6 5 10 10 10 6 0 10 -4 10 -10z m3930 -20 c0
-5 -4 -10 -10 -10 -5 0 -10 5 -10 10 0 6 5 10 10 10 6 0 10 -4 10 -10z m-3960
-174 c0 -8 -4 -17 -9 -20 -10 -7 -23 19 -14 28 11 11 23 6 23 -8z m830 -26 c0
-19 -18 -19 -23 -1 -3 14 -1 18 9 14 8 -3 14 -9 14 -13z m-1410 -20 c0 -5 -2
-10 -4 -10 -3 0 -8 5 -11 10 -3 6 -1 10 4 10 6 0 11 -4 11 -10z m3420 -4 c0
-3 -4 -8 -10 -11 -5 -3 -10 -1 -10 4 0 6 5 11 10 11 6 0 10 -2 10 -4z m10 -51
c-19 -22 -40 -19 -39 8 0 12 3 16 6 10 7 -19 23 -16 23 4 0 13 3 14 12 5 8 -8
8 -15 -2 -27z m-2845 -23 c2 -21 -2 -32 -11 -32 -8 0 -11 6 -8 15 4 10 0 15
-12 16 -18 1 -18 2 -1 6 12 3 16 10 13 20 -4 8 -1 13 5 11 7 -2 13 -18 14 -36z"/>
<path d="M2693 5164 c-16 -43 104 -69 332 -69 201 0 395 33 395 67 0 12 -218
10 -225 -2 -5 -8 -11 -8 -20 0 -10 9 -15 6 -21 -12 l-7 -23 -8 24 c-8 21 -13
22 -67 16 -31 -4 -61 -7 -67 -6 -79 1 -274 13 -288 17 -10 3 -20 -1 -24 -12z"/>
<path d="M9815 7770 c-3 -5 -2 -10 4 -10 5 0 13 5 16 10 3 6 2 10 -4 10 -5 0
-13 -4 -16 -10z"/>
</g>
</svg>
